<svg width="40" height="40" viewBox="0 0 40 40" fill="none" xmlns="http://www.w3.org/2000/svg">
<mask id="path-1-inside-1_228_10584" fill="white">
<path d="M0 0H40V40H0V0Z"/>
</mask>
<g clip-path="url(#paint0_angular_228_10584_clip_path)" data-figma-skip-parse="true" mask="url(#path-1-inside-1_228_10584)"><g transform="matrix(0.02 0.02 -0.02 0.02 20 20)"><foreignObject x="-1050" y="-1050" width="2100" height="2100"><div xmlns="http://www.w3.org/1999/xhtml" style="background:conic-gradient(from 90deg,rgba(255, 255, 255, 1) 0deg,rgba(255, 255, 255, 0) 360deg);height:100%;width:100%;opacity:1"></div></foreignObject></g></g><path d="M0 0V-1H-1V0H0ZM40 0H41V-1H40V0ZM40 40V41H41V40H40ZM0 40H-1V41H0V40ZM0 0V1H40V0V-1H0V0ZM40 0H39V40H40H41V0H40ZM40 40V39H0V40V41H40V40ZM0 40H1V0H0H-1V40H0Z" data-figma-gradient-fill="{&#34;type&#34;:&#34;GRADIENT_ANGULAR&#34;,&#34;stops&#34;:[{&#34;color&#34;:{&#34;r&#34;:1.0,&#34;g&#34;:1.0,&#34;b&#34;:1.0,&#34;a&#34;:1.0},&#34;position&#34;:0.0},{&#34;color&#34;:{&#34;r&#34;:1.0,&#34;g&#34;:1.0,&#34;b&#34;:1.0,&#34;a&#34;:0.0},&#34;position&#34;:1.0}],&#34;stopsVar&#34;:[{&#34;color&#34;:{&#34;r&#34;:1.0,&#34;g&#34;:1.0,&#34;b&#34;:1.0,&#34;a&#34;:1.0},&#34;position&#34;:0.0},{&#34;color&#34;:{&#34;r&#34;:1.0,&#34;g&#34;:1.0,&#34;b&#34;:1.0,&#34;a&#34;:0.0},&#34;position&#34;:1.0}],&#34;transform&#34;:{&#34;m00&#34;:40.0,&#34;m01&#34;:-40.0,&#34;m02&#34;:20.0,&#34;m10&#34;:40.0,&#34;m11&#34;:40.0,&#34;m12&#34;:-20.0},&#34;opacity&#34;:1.0,&#34;blendMode&#34;:&#34;NORMAL&#34;,&#34;visible&#34;:true}" mask="url(#path-1-inside-1_228_10584)"/>
<mask id="path-3-inside-2_228_10584" fill="white">
<path d="M2.5 2.5H37.5V37.5H2.5V2.5Z"/>
</mask>
<g clip-path="url(#paint1_angular_228_10584_clip_path)" data-figma-skip-parse="true" mask="url(#path-3-inside-2_228_10584)"><g transform="matrix(0.0175 0.0175 -0.0175 0.0175 20 20)"><foreignObject x="-1057.14" y="-1057.14" width="2114.29" height="2114.29"><div xmlns="http://www.w3.org/1999/xhtml" style="background:conic-gradient(from 90deg,rgba(255, 255, 255, 1) 0deg,rgba(255, 255, 255, 0) 360deg);height:100%;width:100%;opacity:1"></div></foreignObject></g></g><path d="M2.5 2.5V1.5H1.5V2.5H2.5ZM37.5 2.5H38.5V1.5H37.5V2.5ZM37.5 37.5V38.5H38.5V37.5H37.5ZM2.5 37.5H1.5V38.5H2.5V37.5ZM2.5 2.5V3.5H37.5V2.5V1.5H2.5V2.5ZM37.5 2.5H36.5V37.5H37.5H38.5V2.5H37.5ZM37.5 37.5V36.5H2.5V37.5V38.5H37.5V37.5ZM2.5 37.5H3.5V2.5H2.5H1.5V37.5H2.5Z" data-figma-gradient-fill="{&#34;type&#34;:&#34;GRADIENT_ANGULAR&#34;,&#34;stops&#34;:[{&#34;color&#34;:{&#34;r&#34;:1.0,&#34;g&#34;:1.0,&#34;b&#34;:1.0,&#34;a&#34;:1.0},&#34;position&#34;:0.0},{&#34;color&#34;:{&#34;r&#34;:1.0,&#34;g&#34;:1.0,&#34;b&#34;:1.0,&#34;a&#34;:0.0},&#34;position&#34;:1.0}],&#34;stopsVar&#34;:[{&#34;color&#34;:{&#34;r&#34;:1.0,&#34;g&#34;:1.0,&#34;b&#34;:1.0,&#34;a&#34;:1.0},&#34;position&#34;:0.0},{&#34;color&#34;:{&#34;r&#34;:1.0,&#34;g&#34;:1.0,&#34;b&#34;:1.0,&#34;a&#34;:0.0},&#34;position&#34;:1.0}],&#34;transform&#34;:{&#34;m00&#34;:35.0,&#34;m01&#34;:-35.0,&#34;m02&#34;:20.0,&#34;m10&#34;:35.0,&#34;m11&#34;:35.0,&#34;m12&#34;:-15.0},&#34;opacity&#34;:1.0,&#34;blendMode&#34;:&#34;NORMAL&#34;,&#34;visible&#34;:true}" mask="url(#path-3-inside-2_228_10584)"/>
<mask id="path-5-inside-3_228_10584" fill="white">
<path d="M5 5H35V35H5V5Z"/>
</mask>
<g clip-path="url(#paint2_angular_228_10584_clip_path)" data-figma-skip-parse="true" mask="url(#path-5-inside-3_228_10584)"><g transform="matrix(0.015 0.015 -0.015 0.015 20 20)"><foreignObject x="-1066.67" y="-1066.67" width="2133.33" height="2133.33"><div xmlns="http://www.w3.org/1999/xhtml" style="background:conic-gradient(from 90deg,rgba(255, 255, 255, 1) 0deg,rgba(255, 255, 255, 0) 360deg);height:100%;width:100%;opacity:1"></div></foreignObject></g></g><path d="M5 5V4H4V5H5ZM35 5H36V4H35V5ZM35 35V36H36V35H35ZM5 35H4V36H5V35ZM5 5V6H35V5V4H5V5ZM35 5H34V35H35H36V5H35ZM35 35V34H5V35V36H35V35ZM5 35H6V5H5H4V35H5Z" data-figma-gradient-fill="{&#34;type&#34;:&#34;GRADIENT_ANGULAR&#34;,&#34;stops&#34;:[{&#34;color&#34;:{&#34;r&#34;:1.0,&#34;g&#34;:1.0,&#34;b&#34;:1.0,&#34;a&#34;:1.0},&#34;position&#34;:0.0},{&#34;color&#34;:{&#34;r&#34;:1.0,&#34;g&#34;:1.0,&#34;b&#34;:1.0,&#34;a&#34;:0.0},&#34;position&#34;:1.0}],&#34;stopsVar&#34;:[{&#34;color&#34;:{&#34;r&#34;:1.0,&#34;g&#34;:1.0,&#34;b&#34;:1.0,&#34;a&#34;:1.0},&#34;position&#34;:0.0},{&#34;color&#34;:{&#34;r&#34;:1.0,&#34;g&#34;:1.0,&#34;b&#34;:1.0,&#34;a&#34;:0.0},&#34;position&#34;:1.0}],&#34;transform&#34;:{&#34;m00&#34;:30.0,&#34;m01&#34;:-30.0,&#34;m02&#34;:20.0,&#34;m10&#34;:30.0,&#34;m11&#34;:30.0,&#34;m12&#34;:-10.0},&#34;opacity&#34;:1.0,&#34;blendMode&#34;:&#34;NORMAL&#34;,&#34;visible&#34;:true}" mask="url(#path-5-inside-3_228_10584)"/>
<mask id="path-7-inside-4_228_10584" fill="white">
<path d="M7.5 7.5H32.5V32.5H7.5V7.5Z"/>
</mask>
<g clip-path="url(#paint3_angular_228_10584_clip_path)" data-figma-skip-parse="true" mask="url(#path-7-inside-4_228_10584)"><g transform="matrix(0.0125 0.0125 -0.0125 0.0125 20 20)"><foreignObject x="-1080" y="-1080" width="2160" height="2160"><div xmlns="http://www.w3.org/1999/xhtml" style="background:conic-gradient(from 90deg,rgba(255, 255, 255, 1) 0deg,rgba(255, 255, 255, 0) 360deg);height:100%;width:100%;opacity:1"></div></foreignObject></g></g><path d="M7.5 7.5V6.5H6.5V7.5H7.5ZM32.5 7.5H33.5V6.5H32.5V7.5ZM32.5 32.5V33.5H33.5V32.5H32.5ZM7.5 32.5H6.5V33.5H7.5V32.5ZM7.5 7.5V8.5H32.5V7.5V6.5H7.5V7.5ZM32.5 7.5H31.5V32.5H32.5H33.5V7.5H32.5ZM32.5 32.5V31.5H7.5V32.5V33.5H32.5V32.5ZM7.5 32.5H8.5V7.5H7.5H6.5V32.5H7.5Z" data-figma-gradient-fill="{&#34;type&#34;:&#34;GRADIENT_ANGULAR&#34;,&#34;stops&#34;:[{&#34;color&#34;:{&#34;r&#34;:1.0,&#34;g&#34;:1.0,&#34;b&#34;:1.0,&#34;a&#34;:1.0},&#34;position&#34;:0.0},{&#34;color&#34;:{&#34;r&#34;:1.0,&#34;g&#34;:1.0,&#34;b&#34;:1.0,&#34;a&#34;:0.0},&#34;position&#34;:1.0}],&#34;stopsVar&#34;:[{&#34;color&#34;:{&#34;r&#34;:1.0,&#34;g&#34;:1.0,&#34;b&#34;:1.0,&#34;a&#34;:1.0},&#34;position&#34;:0.0},{&#34;color&#34;:{&#34;r&#34;:1.0,&#34;g&#34;:1.0,&#34;b&#34;:1.0,&#34;a&#34;:0.0},&#34;position&#34;:1.0}],&#34;transform&#34;:{&#34;m00&#34;:25.0,&#34;m01&#34;:-25.0,&#34;m02&#34;:20.0,&#34;m10&#34;:25.0,&#34;m11&#34;:25.0,&#34;m12&#34;:-5.0},&#34;opacity&#34;:1.0,&#34;blendMode&#34;:&#34;NORMAL&#34;,&#34;visible&#34;:true}" mask="url(#path-7-inside-4_228_10584)"/>
<mask id="path-9-inside-5_228_10584" fill="white">
<path d="M10 10H30V30H10V10Z"/>
</mask>
<g clip-path="url(#paint4_angular_228_10584_clip_path)" data-figma-skip-parse="true" mask="url(#path-9-inside-5_228_10584)"><g transform="matrix(0.01 0.01 -0.01 0.01 20 20)"><foreignObject x="-1100" y="-1100" width="2200" height="2200"><div xmlns="http://www.w3.org/1999/xhtml" style="background:conic-gradient(from 90deg,rgba(255, 255, 255, 1) 0deg,rgba(255, 255, 255, 0) 360deg);height:100%;width:100%;opacity:1"></div></foreignObject></g></g><path d="M10 10V9H9V10H10ZM30 10H31V9H30V10ZM30 30V31H31V30H30ZM10 30H9V31H10V30ZM10 10V11H30V10V9H10V10ZM30 10H29V30H30H31V10H30ZM30 30V29H10V30V31H30V30ZM10 30H11V10H10H9V30H10Z" data-figma-gradient-fill="{&#34;type&#34;:&#34;GRADIENT_ANGULAR&#34;,&#34;stops&#34;:[{&#34;color&#34;:{&#34;r&#34;:1.0,&#34;g&#34;:1.0,&#34;b&#34;:1.0,&#34;a&#34;:1.0},&#34;position&#34;:0.0},{&#34;color&#34;:{&#34;r&#34;:1.0,&#34;g&#34;:1.0,&#34;b&#34;:1.0,&#34;a&#34;:0.0},&#34;position&#34;:1.0}],&#34;stopsVar&#34;:[{&#34;color&#34;:{&#34;r&#34;:1.0,&#34;g&#34;:1.0,&#34;b&#34;:1.0,&#34;a&#34;:1.0},&#34;position&#34;:0.0},{&#34;color&#34;:{&#34;r&#34;:1.0,&#34;g&#34;:1.0,&#34;b&#34;:1.0,&#34;a&#34;:0.0},&#34;position&#34;:1.0}],&#34;transform&#34;:{&#34;m00&#34;:20.0,&#34;m01&#34;:-20.0,&#34;m02&#34;:20.0,&#34;m10&#34;:20.0,&#34;m11&#34;:20.0,&#34;m12&#34;:5.3290705182007514e-15},&#34;opacity&#34;:1.0,&#34;blendMode&#34;:&#34;NORMAL&#34;,&#34;visible&#34;:true}" mask="url(#path-9-inside-5_228_10584)"/>
<mask id="path-11-inside-6_228_10584" fill="white">
<path d="M12.5 12.5H27.5V27.5H12.5V12.5Z"/>
</mask>
<g clip-path="url(#paint5_angular_228_10584_clip_path)" data-figma-skip-parse="true" mask="url(#path-11-inside-6_228_10584)"><g transform="matrix(0.0075 0.0075 -0.0075 0.0075 20 20)"><foreignObject x="-1133.33" y="-1133.33" width="2266.67" height="2266.67"><div xmlns="http://www.w3.org/1999/xhtml" style="background:conic-gradient(from 90deg,rgba(255, 255, 255, 1) 0deg,rgba(255, 255, 255, 0) 360deg);height:100%;width:100%;opacity:1"></div></foreignObject></g></g><path d="M12.5 12.5V11.5H11.5V12.5H12.5ZM27.5 12.5H28.5V11.5H27.5V12.5ZM27.5 27.5V28.5H28.5V27.5H27.5ZM12.5 27.5H11.5V28.5H12.5V27.5ZM12.5 12.5V13.5H27.5V12.5V11.5H12.5V12.5ZM27.5 12.5H26.5V27.5H27.5H28.5V12.5H27.5ZM27.5 27.5V26.5H12.5V27.5V28.5H27.5V27.5ZM12.5 27.5H13.5V12.5H12.5H11.5V27.5H12.5Z" data-figma-gradient-fill="{&#34;type&#34;:&#34;GRADIENT_ANGULAR&#34;,&#34;stops&#34;:[{&#34;color&#34;:{&#34;r&#34;:1.0,&#34;g&#34;:1.0,&#34;b&#34;:1.0,&#34;a&#34;:1.0},&#34;position&#34;:0.0},{&#34;color&#34;:{&#34;r&#34;:1.0,&#34;g&#34;:1.0,&#34;b&#34;:1.0,&#34;a&#34;:0.0},&#34;position&#34;:1.0}],&#34;stopsVar&#34;:[{&#34;color&#34;:{&#34;r&#34;:1.0,&#34;g&#34;:1.0,&#34;b&#34;:1.0,&#34;a&#34;:1.0},&#34;position&#34;:0.0},{&#34;color&#34;:{&#34;r&#34;:1.0,&#34;g&#34;:1.0,&#34;b&#34;:1.0,&#34;a&#34;:0.0},&#34;position&#34;:1.0}],&#34;transform&#34;:{&#34;m00&#34;:15.0,&#34;m01&#34;:-15.0,&#34;m02&#34;:20.0,&#34;m10&#34;:15.0,&#34;m11&#34;:15.0,&#34;m12&#34;:5.0},&#34;opacity&#34;:1.0,&#34;blendMode&#34;:&#34;NORMAL&#34;,&#34;visible&#34;:true}" mask="url(#path-11-inside-6_228_10584)"/>
<mask id="path-13-inside-7_228_10584" fill="white">
<path d="M15 15H25V25H15V15Z"/>
</mask>
<g clip-path="url(#paint6_angular_228_10584_clip_path)" data-figma-skip-parse="true" mask="url(#path-13-inside-7_228_10584)"><g transform="matrix(0.005 0.005 -0.005 0.005 20 20)"><foreignObject x="-1200" y="-1200" width="2400" height="2400"><div xmlns="http://www.w3.org/1999/xhtml" style="background:conic-gradient(from 90deg,rgba(255, 255, 255, 1) 0deg,rgba(255, 255, 255, 0) 360deg);height:100%;width:100%;opacity:1"></div></foreignObject></g></g><path d="M15 15V14H14V15H15ZM25 15H26V14H25V15ZM25 25V26H26V25H25ZM15 25H14V26H15V25ZM15 15V16H25V15V14H15V15ZM25 15H24V25H25H26V15H25ZM25 25V24H15V25V26H25V25ZM15 25H16V15H15H14V25H15Z" data-figma-gradient-fill="{&#34;type&#34;:&#34;GRADIENT_ANGULAR&#34;,&#34;stops&#34;:[{&#34;color&#34;:{&#34;r&#34;:1.0,&#34;g&#34;:1.0,&#34;b&#34;:1.0,&#34;a&#34;:1.0},&#34;position&#34;:0.0},{&#34;color&#34;:{&#34;r&#34;:1.0,&#34;g&#34;:1.0,&#34;b&#34;:1.0,&#34;a&#34;:0.0},&#34;position&#34;:1.0}],&#34;stopsVar&#34;:[{&#34;color&#34;:{&#34;r&#34;:1.0,&#34;g&#34;:1.0,&#34;b&#34;:1.0,&#34;a&#34;:1.0},&#34;position&#34;:0.0},{&#34;color&#34;:{&#34;r&#34;:1.0,&#34;g&#34;:1.0,&#34;b&#34;:1.0,&#34;a&#34;:0.0},&#34;position&#34;:1.0}],&#34;transform&#34;:{&#34;m00&#34;:10.0,&#34;m01&#34;:-10.0,&#34;m02&#34;:20.0,&#34;m10&#34;:10.0,&#34;m11&#34;:10.0,&#34;m12&#34;:10.0},&#34;opacity&#34;:1.0,&#34;blendMode&#34;:&#34;NORMAL&#34;,&#34;visible&#34;:true}" mask="url(#path-13-inside-7_228_10584)"/>
<defs>
<clipPath id="paint0_angular_228_10584_clip_path"><path d="M0 0V-1H-1V0H0ZM40 0H41V-1H40V0ZM40 40V41H41V40H40ZM0 40H-1V41H0V40ZM0 0V1H40V0V-1H0V0ZM40 0H39V40H40H41V0H40ZM40 40V39H0V40V41H40V40ZM0 40H1V0H0H-1V40H0Z" mask="url(#path-1-inside-1_228_10584)"/></clipPath><clipPath id="paint1_angular_228_10584_clip_path"><path d="M2.5 2.5V1.5H1.5V2.5H2.5ZM37.5 2.5H38.5V1.5H37.5V2.5ZM37.5 37.5V38.5H38.5V37.5H37.5ZM2.5 37.5H1.5V38.5H2.5V37.5ZM2.5 2.5V3.5H37.5V2.5V1.5H2.5V2.5ZM37.5 2.5H36.5V37.5H37.5H38.5V2.5H37.5ZM37.5 37.5V36.5H2.5V37.5V38.5H37.5V37.5ZM2.5 37.5H3.5V2.5H2.5H1.5V37.5H2.5Z" mask="url(#path-3-inside-2_228_10584)"/></clipPath><clipPath id="paint2_angular_228_10584_clip_path"><path d="M5 5V4H4V5H5ZM35 5H36V4H35V5ZM35 35V36H36V35H35ZM5 35H4V36H5V35ZM5 5V6H35V5V4H5V5ZM35 5H34V35H35H36V5H35ZM35 35V34H5V35V36H35V35ZM5 35H6V5H5H4V35H5Z" mask="url(#path-5-inside-3_228_10584)"/></clipPath><clipPath id="paint3_angular_228_10584_clip_path"><path d="M7.5 7.5V6.5H6.5V7.5H7.5ZM32.5 7.5H33.5V6.5H32.5V7.5ZM32.5 32.5V33.5H33.5V32.5H32.5ZM7.5 32.5H6.5V33.5H7.5V32.5ZM7.5 7.5V8.5H32.5V7.5V6.5H7.5V7.5ZM32.5 7.5H31.5V32.5H32.5H33.5V7.5H32.5ZM32.5 32.5V31.5H7.5V32.5V33.5H32.5V32.5ZM7.5 32.5H8.5V7.5H7.5H6.5V32.5H7.5Z" mask="url(#path-7-inside-4_228_10584)"/></clipPath><clipPath id="paint4_angular_228_10584_clip_path"><path d="M10 10V9H9V10H10ZM30 10H31V9H30V10ZM30 30V31H31V30H30ZM10 30H9V31H10V30ZM10 10V11H30V10V9H10V10ZM30 10H29V30H30H31V10H30ZM30 30V29H10V30V31H30V30ZM10 30H11V10H10H9V30H10Z" mask="url(#path-9-inside-5_228_10584)"/></clipPath><clipPath id="paint5_angular_228_10584_clip_path"><path d="M12.5 12.5V11.5H11.5V12.5H12.5ZM27.5 12.5H28.5V11.5H27.5V12.5ZM27.5 27.5V28.5H28.5V27.5H27.5ZM12.5 27.5H11.5V28.5H12.5V27.5ZM12.5 12.5V13.5H27.5V12.5V11.5H12.5V12.5ZM27.5 12.5H26.5V27.5H27.5H28.5V12.5H27.5ZM27.5 27.5V26.5H12.5V27.5V28.5H27.5V27.5ZM12.5 27.5H13.5V12.5H12.5H11.5V27.5H12.5Z" mask="url(#path-11-inside-6_228_10584)"/></clipPath><clipPath id="paint6_angular_228_10584_clip_path"><path d="M15 15V14H14V15H15ZM25 15H26V14H25V15ZM25 25V26H26V25H25ZM15 25H14V26H15V25ZM15 15V16H25V15V14H15V15ZM25 15H24V25H25H26V15H25ZM25 25V24H15V25V26H25V25ZM15 25H16V15H15H14V25H15Z" mask="url(#path-13-inside-7_228_10584)"/></clipPath></defs>
</svg>
