<svg width="441" height="108" viewBox="0 0 441 108" fill="none" xmlns="http://www.w3.org/2000/svg">
<g clip-path="url(#clip0_176_3318)">
<path d="M210.287 62.5391H175.843C176.651 68.7279 181.046 72.6751 187.683 72.6751C192.437 72.6751 195.935 70.6119 197.819 67.2935L208.583 72.4063C205.623 79.5823 197.551 84.3359 187.504 84.3359C171.987 84.3359 161.851 72.8543 161.851 58.6823C161.851 44.5103 172.615 33.2087 186.607 33.2087C200.6 33.2087 210.915 43.7927 210.915 57.3375C210.915 59.3111 210.736 61.1943 210.287 62.5399V62.5391ZM196.653 52.6727C196.115 47.4703 192.168 43.9719 186.607 43.9719C181.045 43.9719 177.458 47.0215 176.112 52.6727H196.653Z" fill="black"/>
<path d="M259.082 34.2847V83.2591H246.525V77.3391C244.013 81.9135 239.169 84.3359 233.07 84.3359C221.858 84.3359 214.233 76.0839 214.233 64.0647V34.2855H227.688V62.8991C227.688 68.5503 231.365 72.2279 236.657 72.2279C241.949 72.2279 245.627 68.5503 245.627 62.8991V34.2855H259.081L259.082 34.2847Z" fill="black"/>
<path d="M264.194 70.2527L274.15 65.5887C276.752 71.0607 281.147 74.0207 286.708 74.0207C290.924 74.0207 293.614 72.3167 293.614 69.6255C293.614 66.3967 289.668 65.4095 287.963 64.9615L279.352 62.7191C270.472 60.3871 266.166 55.1847 266.166 48.4575C266.166 39.3983 273.97 33.2095 285.451 33.2095C295.497 33.2095 303.48 38.0527 306.62 46.0359L296.573 50.6999C294.959 46.4839 290.743 43.9727 285.451 43.9727C281.504 43.9727 279.172 45.4975 279.172 48.0095C279.172 50.9695 282.58 51.8663 284.195 52.3151L293.254 54.7367C301.955 57.0687 306.619 62.0919 306.619 69.0879C306.619 78.1471 298.456 84.3367 286.706 84.3367C276.032 84.3367 267.242 79.1343 264.192 70.2543L264.194 70.2527Z" fill="black"/>
<path d="M353.53 50.9679V83.2591H340.973V78.7743C337.295 82.6311 332.81 84.3359 327.159 84.3359C316.037 84.3359 309.04 78.0575 309.04 69.8951C309.04 62.6295 314.781 57.8759 324.737 55.8127L340.075 52.5839V50.9695C340.075 47.2919 337.026 44.8703 332.541 44.8703C327.787 44.8703 323.84 47.6511 322.405 52.0463L310.834 46.4847C313.704 38.4119 322.135 33.2095 332.54 33.2095C345.008 33.2095 353.529 40.4751 353.529 50.9695L353.53 50.9679ZM340.076 64.6015V62.2695L327.159 65.1399C324.378 65.7679 322.943 67.4719 322.943 69.7143C322.943 72.6743 325.365 74.4679 329.222 74.4679C335.322 74.4679 340.076 70.0727 340.076 64.6007V64.6015Z" fill="black"/>
<path d="M364.382 65.5887V45.9447H355.951V34.2839H356.579C361.602 34.2839 364.383 31.7727 364.383 26.7495V19.5735H377.838V34.2839H389.319V45.9447H377.838V65.5887C377.838 70.6119 380.529 73.0335 386.179 73.0335C386.986 73.0335 388.063 72.9439 389.318 72.7647V83.3487C387.525 83.6175 385.102 83.7975 383.039 83.7975C371.199 83.7975 364.382 77.0703 364.382 65.5887Z" fill="black"/>
<path d="M440.176 62.5391H405.732C406.539 68.7279 410.934 72.6751 417.572 72.6751C422.326 72.6751 425.824 70.6119 427.708 67.2935L438.472 72.4063C435.512 79.5823 427.439 84.3359 417.393 84.3359C401.875 84.3359 391.739 72.8543 391.739 58.6823C391.739 44.5103 402.503 33.2087 416.496 33.2087C430.489 33.2087 440.804 43.7927 440.804 57.3375C440.804 59.3111 440.625 61.1943 440.176 62.5399V62.5391ZM426.542 52.6727C426.004 47.4703 422.058 43.9719 416.496 43.9719C410.934 43.9719 407.347 47.0215 406.002 52.6727H426.542Z" fill="black"/>
<path d="M81.9099 50.1799C81.9075 46.7319 84.6891 43.9071 88.1059 43.8871C91.4907 43.8663 94.3987 46.7447 94.3891 50.1039C94.3787 53.5743 91.6123 56.3255 88.1467 56.3159C84.7091 56.3031 81.9099 53.5495 81.9099 50.1807V50.1799ZM53.7683 43.8919C50.3283 43.9175 47.5643 46.7119 47.5643 50.1671C47.5643 53.6223 50.3715 56.3535 53.8491 56.3151C57.3683 56.2767 60.0075 53.6711 59.9923 50.2535C59.9771 46.7399 57.1651 43.8687 53.7683 43.8919ZM65.9867 85.9791C62.7723 85.9791 59.5811 87.0743 56.9523 88.9711C50.9803 87.7591 45.3299 85.7215 39.9259 82.7239C33.0515 78.9119 27.3835 73.7775 23.7243 66.7511C18.5019 56.7151 19.2163 46.8903 25.4691 37.5335C30.3107 30.2791 37.0795 25.3663 45.0491 21.9471C51.9291 19.0015 59.0667 17.3391 66.5371 16.9231C68.0659 16.8407 69.5819 16.7999 71.0923 16.7999C78.9555 16.7999 86.6491 17.9767 94.1211 20.7639C101.78 23.6271 108.559 27.9071 113.894 34.1135C119.152 40.2207 122.191 47.2879 121.494 55.5791C120.891 62.7455 117.951 68.8759 113.045 74.0583C111.399 75.8031 109.625 77.4831 107.705 78.9239C101.984 83.2159 95.5907 86.1199 88.7283 88.0575C86.4683 86.7695 83.8563 86.0607 81.0403 86.0079C79.1019 85.9791 77.0003 85.9607 74.4179 85.9607C73.0067 85.9607 71.5899 85.9671 70.1787 85.9671C68.7795 85.9727 67.3859 85.9791 65.9859 85.9791H65.9867ZM58.3227 71.0655C62.4859 71.0655 66.6547 71.0191 70.8179 71.0191H81.3339C83.4419 71.0191 85.5611 71.0367 87.6755 71.0367C88.9931 71.0367 90.3163 71.0247 91.6395 71.0071C98.6659 70.9079 104.375 67.9335 108.479 62.3767C112.595 56.8079 113.755 50.4791 111.495 43.7863C108.432 34.7111 100.615 29.3119 91.7859 29.2303C85.9187 29.1719 80.0523 29.1543 74.1851 29.1543C66.1811 29.1543 58.1715 29.1831 50.1731 29.2007C44.6515 29.2127 39.8155 31.2559 35.9331 35.0151C29.0003 41.7191 26.8811 51.7783 32.4139 60.7895C36.4771 67.4175 42.5547 70.8023 50.2843 70.9831C52.9659 71.0415 55.6419 71.0647 58.3235 71.0647L58.3227 71.0655ZM137.831 52.3855C136.163 52.1271 136.176 52.1239 135.858 50.5087C133.643 39.3223 128.63 29.3559 120.51 20.8207C118.241 18.4383 115.674 16.2695 113.04 14.2287C101.904 5.6135 89.0219 0.971903 74.5683 0.114303C68.5499 -0.244897 62.5843 0.244703 56.7099 1.5015C42.2267 4.6047 30.0347 11.2599 20.4275 21.8559C15.1595 27.6631 11.2051 34.1679 8.52109 41.3423C7.25789 44.7167 6.34989 48.1719 5.71949 51.6935C5.65949 52.0287 5.60189 52.2463 5.13629 52.2703C1.92909 52.4447 0.0426894 54.1063 0.0194894 57.0719C-0.0341106 63.1007 0.0258894 69.1295 0.103489 75.1615C0.126689 77.1455 1.70189 78.7807 3.79309 79.2135C4.13869 79.2871 4.50029 79.3439 4.85229 79.3439C7.71069 79.3543 10.5691 79.3607 13.4275 79.3607C14.5603 79.3607 15.6899 79.3607 16.8219 79.3575C17.5891 79.3575 18.9699 79.1567 18.9939 78.1479C19.0075 77.6183 18.6987 77.1423 18.4107 76.6967C14.0739 70.0143 11.7283 61.9487 12.2275 53.9663C12.6395 47.4247 14.8987 41.0343 18.9467 34.9751C22.3083 29.9319 26.6307 25.6823 31.5403 22.1535C45.7819 11.9095 64.0827 7.0639 81.4755 9.9751C93.0371 11.9087 104.259 16.6839 113.275 24.2375C115.791 26.3455 118.1 28.6975 120.151 31.2615C130.117 43.7071 133.576 62.5071 123.703 76.1295C123.328 76.6455 122.919 77.1847 122.859 77.8215C122.741 79.0543 124.055 79.3295 125.01 79.3495C125.154 79.3527 125.302 79.3559 125.446 79.3599H128.691C128.464 79.7783 128.232 80.1919 127.992 80.5991C124.78 86.0479 120.354 90.5127 114.486 93.7623C111.228 95.5679 107.803 97.0151 104.144 97.8479C103.26 98.0487 102.365 98.2247 101.451 98.3487C100.882 98.4279 100.312 98.4903 99.7411 98.5431C99.4443 98.5703 99.1467 98.5879 98.8491 98.6095C98.5795 98.6287 98.3107 98.6511 98.0411 98.6655C97.6899 98.6847 97.3387 98.6967 96.9875 98.7087C96.7683 98.7167 96.5483 98.7263 96.3283 98.7319C95.9539 98.7407 95.5795 98.7463 95.2051 98.7503C95.0115 98.7519 94.8179 98.7551 94.6243 98.7559C94.2987 98.7567 93.9739 98.7559 93.6483 98.7543C92.9635 98.7511 92.2779 98.7455 91.5939 98.7359C90.4675 98.7207 89.3419 98.7023 88.2171 98.6991C88.0451 98.6991 87.8243 98.5431 87.6771 98.3735C87.6315 98.3207 87.5915 98.2663 87.5635 98.2151C86.1875 95.6623 83.9451 94.2575 80.9003 94.2039C79.7451 94.1847 78.5899 94.1735 77.4347 94.1671C76.8667 94.1631 76.2979 94.1631 75.7299 94.1615C75.2931 94.1607 74.8563 94.1575 74.4187 94.1575C74.2515 94.1575 74.0843 94.1583 73.9163 94.1583C72.7299 94.1591 71.5427 94.1623 70.3563 94.1655C68.9003 94.1703 67.4435 94.1743 65.9875 94.1743C64.9147 94.1743 63.8411 94.4487 62.8627 94.9311C61.9971 95.3575 61.2083 95.9487 60.5611 96.6599C59.0771 98.2927 58.3443 100.561 59.1819 102.945C59.2891 103.25 59.4219 103.557 59.5819 103.865C59.7691 104.225 59.9795 104.556 60.2027 104.869C61.1723 106.229 62.4763 107.137 64.1043 107.549C64.7467 107.711 65.4379 107.8 66.1803 107.807C66.4307 107.809 66.6803 107.809 66.9307 107.811C68.8291 107.829 70.7275 107.837 72.6259 107.838C75.2811 107.841 77.9355 107.837 80.5899 107.824C83.0627 107.811 84.9731 106.928 86.3851 105.336C86.8027 104.866 87.1787 104.338 87.5107 103.748C87.5915 103.601 87.6763 103.497 87.7739 103.421C87.7899 103.408 87.8035 103.39 87.8211 103.38C87.8563 103.357 87.8995 103.345 87.9403 103.33C87.9707 103.319 87.9963 103.303 88.0307 103.295C88.0819 103.283 88.1443 103.281 88.2043 103.277C88.2395 103.275 88.2691 103.269 88.3083 103.269H88.3187C89.3763 103.277 90.4307 103.289 91.4859 103.297C91.5699 103.297 91.6539 103.298 91.7379 103.298C92.0187 103.3 92.2995 103.303 92.5811 103.303C93.2355 103.303 93.8891 103.292 94.5435 103.28C94.7147 103.277 94.8851 103.28 95.0563 103.277C95.6635 103.264 96.2715 103.246 96.8795 103.223C98.1283 103.178 99.3755 103.107 100.615 102.989C100.669 102.984 100.723 102.98 100.776 102.975H100.777C100.777 102.975 100.777 102.975 100.778 102.975C100.842 102.969 100.906 102.958 100.97 102.951C104.632 102.564 108.099 101.492 111.507 100.237C116.155 98.5223 120.244 96.0815 123.803 92.9223C124.57 92.2415 125.321 91.5391 126.038 90.7903C126.451 90.3583 126.852 89.9191 127.244 89.4759C127.277 89.4391 127.312 89.4031 127.345 89.3663C127.359 89.3511 127.371 89.3351 127.384 89.3199C130.061 86.2647 132.21 82.9455 133.837 79.3607H136.646C136.689 79.3607 136.729 79.3575 136.773 79.3575C139.665 79.3039 141.706 77.5511 141.743 74.8839C141.83 68.8319 141.847 62.7759 141.833 56.7239C141.827 54.5727 140.034 52.7263 137.832 52.3839L137.831 52.3855Z" fill="url(#paint0_linear_176_3318)"/>
</g>
<defs>
<linearGradient id="paint0_linear_176_3318" x1="-0.000976562" y1="53.9194" x2="141.837" y2="53.9194" gradientUnits="userSpaceOnUse">
<stop stop-color="#D7AB07"/>
<stop offset="1" stop-color="#E86555"/>
</linearGradient>
<clipPath id="clip0_176_3318">
<rect width="440.805" height="107.841" fill="white"/>
</clipPath>
</defs>
</svg>
