<svg width="441" height="108" viewBox="0 0 441 108" fill="none" xmlns="http://www.w3.org/2000/svg">
<g clip-path="url(#clip0_176_3321)">
<path d="M210.287 62.5394H175.843C176.651 68.7282 181.046 72.6754 187.683 72.6754C192.437 72.6754 195.935 70.6122 197.819 67.2938L208.583 72.4066C205.623 79.5826 197.551 84.3362 187.504 84.3362C171.987 84.3362 161.851 72.8546 161.851 58.6826C161.851 44.5106 172.615 33.209 186.607 33.209C200.6 33.209 210.915 43.793 210.915 57.3378C210.915 59.3114 210.736 61.1946 210.287 62.5402V62.5394ZM196.653 52.673C196.115 47.4706 192.168 43.9722 186.607 43.9722C181.045 43.9722 177.458 47.0218 176.112 52.673H196.653Z" fill="white"/>
<path d="M259.082 34.2852V83.2596H246.525V77.3396C244.013 81.914 239.169 84.3364 233.07 84.3364C221.858 84.3364 214.233 76.0844 214.233 64.0652V34.286H227.688V62.8996C227.688 68.5508 231.365 72.2284 236.657 72.2284C241.949 72.2284 245.627 68.5508 245.627 62.8996V34.286H259.081L259.082 34.2852Z" fill="white"/>
<path d="M264.194 70.2532L274.15 65.5892C276.752 71.0612 281.147 74.0212 286.708 74.0212C290.924 74.0212 293.614 72.3172 293.614 69.626C293.614 66.3972 289.668 65.41 287.963 64.962L279.352 62.7196C270.472 60.3876 266.166 55.1852 266.166 48.458C266.166 39.3988 273.97 33.21 285.451 33.21C295.497 33.21 303.48 38.0532 306.62 46.0364L296.573 50.7004C294.959 46.4844 290.743 43.9732 285.451 43.9732C281.504 43.9732 279.172 45.498 279.172 48.01C279.172 50.97 282.58 51.8668 284.195 52.3156L293.254 54.7372C301.955 57.0692 306.619 62.0924 306.619 69.0884C306.619 78.1476 298.456 84.3372 286.706 84.3372C276.032 84.3372 267.242 79.1348 264.192 70.2548L264.194 70.2532Z" fill="white"/>
<path d="M353.53 50.9684V83.2596H340.973V78.7748C337.295 82.6316 332.81 84.3364 327.159 84.3364C316.037 84.3364 309.04 78.058 309.04 69.8956C309.04 62.63 314.781 57.8764 324.737 55.8132L340.075 52.5844V50.97C340.075 47.2924 337.026 44.8708 332.541 44.8708C327.787 44.8708 323.84 47.6516 322.405 52.0468L310.834 46.4852C313.704 38.4124 322.135 33.21 332.54 33.21C345.008 33.21 353.529 40.4756 353.529 50.97L353.53 50.9684ZM340.076 64.602V62.27L327.159 65.1404C324.378 65.7684 322.943 67.4724 322.943 69.7148C322.943 72.6748 325.365 74.4684 329.222 74.4684C335.322 74.4684 340.076 70.0732 340.076 64.6012V64.602Z" fill="white"/>
<path d="M364.382 65.5889V45.9449H355.951V34.2841H356.579C361.602 34.2841 364.383 31.7729 364.383 26.7497V19.5737H377.838V34.2841H389.319V45.9449H377.838V65.5889C377.838 70.6121 380.529 73.0337 386.179 73.0337C386.986 73.0337 388.063 72.9441 389.318 72.7649V83.3489C387.525 83.6177 385.102 83.7977 383.039 83.7977C371.199 83.7977 364.382 77.0705 364.382 65.5889Z" fill="white"/>
<path d="M440.176 62.5394H405.732C406.539 68.7282 410.934 72.6754 417.572 72.6754C422.326 72.6754 425.824 70.6122 427.708 67.2938L438.472 72.4066C435.512 79.5826 427.439 84.3362 417.393 84.3362C401.875 84.3362 391.739 72.8546 391.739 58.6826C391.739 44.5106 402.503 33.209 416.496 33.209C430.489 33.209 440.804 43.793 440.804 57.3378C440.804 59.3114 440.625 61.1946 440.176 62.5402V62.5394ZM426.542 52.673C426.004 47.4706 422.058 43.9722 416.496 43.9722C410.934 43.9722 407.347 47.0218 406.002 52.673H426.542Z" fill="white"/>
<path d="M81.9109 50.1799C81.9085 46.7319 84.6901 43.9071 88.1069 43.8871C91.4917 43.8663 94.3997 46.7447 94.3901 50.1039C94.3797 53.5743 91.6133 56.3255 88.1477 56.3159C84.7101 56.3031 81.9109 53.5495 81.9109 50.1807V50.1799ZM53.7693 43.8919C50.3293 43.9175 47.5653 46.7119 47.5653 50.1671C47.5653 53.6223 50.3725 56.3535 53.8501 56.3151C57.3693 56.2767 60.0085 53.6711 59.9933 50.2535C59.9781 46.7399 57.1661 43.8687 53.7693 43.8919ZM65.9877 85.9791C62.7733 85.9791 59.5821 87.0743 56.9533 88.9711C50.9813 87.7591 45.3309 85.7215 39.9269 82.7239C33.0525 78.9119 27.3845 73.7775 23.7253 66.7511C18.5029 56.7151 19.2173 46.8903 25.4701 37.5335C30.3117 30.2791 37.0805 25.3663 45.0501 21.9471C51.9301 19.0015 59.0677 17.3391 66.5381 16.9231C68.0669 16.8407 69.5829 16.7999 71.0933 16.7999C78.9565 16.7999 86.6501 17.9767 94.1221 20.7639C101.78 23.6271 108.56 27.9071 113.895 34.1135C119.153 40.2207 122.192 47.2879 121.495 55.5791C120.892 62.7455 117.952 68.8759 113.046 74.0583C111.4 75.8031 109.626 77.4831 107.706 78.9239C101.985 83.2159 95.5917 86.1199 88.7293 88.0575C86.4693 86.7695 83.8573 86.0607 81.0413 86.0079C79.1029 85.9791 77.0013 85.9607 74.4189 85.9607C73.0077 85.9607 71.5909 85.9671 70.1797 85.9671C68.7805 85.9727 67.3869 85.9791 65.9869 85.9791H65.9877ZM58.3237 71.0655C62.4869 71.0655 66.6557 71.0191 70.8189 71.0191H81.3349C83.4429 71.0191 85.5621 71.0367 87.6765 71.0367C88.9941 71.0367 90.3173 71.0247 91.6405 71.0071C98.6669 70.9079 104.376 67.9335 108.48 62.3767C112.596 56.8079 113.756 50.4791 111.496 43.7863C108.433 34.7111 100.616 29.3119 91.7869 29.2303C85.9197 29.1719 80.0533 29.1543 74.1861 29.1543C66.1821 29.1543 58.1725 29.1831 50.1741 29.2007C44.6525 29.2127 39.8165 31.2559 35.9341 35.0151C29.0013 41.7191 26.8821 51.7783 32.4149 60.7895C36.4781 67.4175 42.5557 70.8023 50.2853 70.9831C52.9669 71.0415 55.6429 71.0647 58.3245 71.0647L58.3237 71.0655ZM137.832 52.3855C136.164 52.1271 136.177 52.1239 135.859 50.5087C133.644 39.3223 128.631 29.3559 120.511 20.8207C118.242 18.4383 115.675 16.2695 113.041 14.2287C101.904 5.6135 89.0229 0.971903 74.5693 0.114303C68.5509 -0.244897 62.5853 0.244703 56.7109 1.5015C42.2277 4.6047 30.0357 11.2599 20.4285 21.8559C15.1605 27.6631 11.2061 34.1679 8.52207 41.3423C7.25887 44.7167 6.35087 48.1719 5.72047 51.6935C5.66047 52.0287 5.60287 52.2463 5.13727 52.2703C1.93007 52.4447 0.043666 54.1063 0.020466 57.0719C-0.033134 63.1007 0.026866 69.1295 0.104466 75.1615C0.127666 77.1455 1.70287 78.7807 3.79407 79.2135C4.13967 79.2871 4.50127 79.3439 4.85327 79.3439C7.71167 79.3543 10.5701 79.3607 13.4285 79.3607C14.5613 79.3607 15.6909 79.3607 16.8229 79.3575C17.5901 79.3575 18.9709 79.1567 18.9949 78.1479C19.0085 77.6183 18.6997 77.1423 18.4117 76.6967C14.0749 70.0143 11.7293 61.9487 12.2285 53.9663C12.6405 47.4247 14.8997 41.0343 18.9477 34.9751C22.3093 29.9319 26.6317 25.6823 31.5413 22.1535C45.7829 11.9095 64.0837 7.0639 81.4765 9.9751C93.0381 11.9087 104.26 16.6839 113.276 24.2375C115.792 26.3455 118.101 28.6975 120.152 31.2615C130.118 43.7071 133.576 62.5071 123.704 76.1295C123.328 76.6455 122.92 77.1847 122.86 77.8215C122.742 79.0543 124.056 79.3295 125.011 79.3495C125.155 79.3527 125.303 79.3559 125.447 79.3599H128.692C128.465 79.7783 128.232 80.1919 127.992 80.5991C124.781 86.0479 120.355 90.5127 114.487 93.7623C111.229 95.5679 107.804 97.0151 104.144 97.8479C103.26 98.0487 102.366 98.2247 101.452 98.3487C100.883 98.4279 100.313 98.4903 99.7421 98.5431C99.4453 98.5703 99.1477 98.5879 98.8501 98.6095C98.5805 98.6287 98.3117 98.6511 98.0421 98.6655C97.6909 98.6847 97.3397 98.6967 96.9885 98.7087C96.7693 98.7167 96.5493 98.7263 96.3293 98.7319C95.9549 98.7407 95.5805 98.7463 95.2061 98.7503C95.0125 98.7519 94.8189 98.7551 94.6253 98.7559C94.2997 98.7567 93.9749 98.7559 93.6493 98.7543C92.9645 98.7511 92.2789 98.7455 91.5949 98.7359C90.4685 98.7207 89.3429 98.7023 88.2181 98.6991C88.0461 98.6991 87.8253 98.5431 87.6781 98.3735C87.6325 98.3207 87.5925 98.2663 87.5645 98.2151C86.1885 95.6623 83.9461 94.2575 80.9013 94.2039C79.7461 94.1847 78.5909 94.1735 77.4357 94.1671C76.8677 94.1631 76.2989 94.1631 75.7309 94.1615C75.2941 94.1607 74.8573 94.1575 74.4197 94.1575C74.2525 94.1575 74.0853 94.1583 73.9173 94.1583C72.7309 94.1591 71.5437 94.1623 70.3573 94.1655C68.9013 94.1703 67.4445 94.1743 65.9885 94.1743C64.9157 94.1743 63.8421 94.4487 62.8637 94.9311C61.9981 95.3575 61.2093 95.9487 60.5621 96.6599C59.0781 98.2927 58.3453 100.561 59.1829 102.945C59.2901 103.25 59.4229 103.557 59.5829 103.865C59.7701 104.225 59.9805 104.556 60.2037 104.869C61.1733 106.229 62.4773 107.137 64.1053 107.549C64.7477 107.711 65.4389 107.8 66.1813 107.807C66.4317 107.809 66.6813 107.809 66.9317 107.811C68.8301 107.829 70.7285 107.837 72.6269 107.838C75.2821 107.841 77.9365 107.837 80.5909 107.824C83.0637 107.811 84.9741 106.928 86.3861 105.336C86.8037 104.866 87.1797 104.338 87.5117 103.748C87.5925 103.601 87.6773 103.497 87.7749 103.421C87.7909 103.408 87.8045 103.39 87.8221 103.38C87.8573 103.357 87.9005 103.345 87.9413 103.33C87.9717 103.319 87.9973 103.303 88.0317 103.295C88.0829 103.283 88.1453 103.281 88.2053 103.277C88.2405 103.275 88.2701 103.269 88.3093 103.269H88.3197C89.3773 103.277 90.4317 103.289 91.4869 103.297C91.5709 103.297 91.6549 103.298 91.7389 103.298C92.0197 103.3 92.3005 103.303 92.5821 103.303C93.2365 103.303 93.8901 103.292 94.5445 103.28C94.7157 103.277 94.8861 103.28 95.0573 103.277C95.6645 103.264 96.2725 103.246 96.8805 103.223C98.1293 103.178 99.3765 103.107 100.616 102.989C100.67 102.984 100.724 102.98 100.777 102.975H100.778C100.778 102.975 100.778 102.975 100.779 102.975C100.843 102.969 100.907 102.958 100.971 102.951C104.632 102.564 108.1 101.492 111.508 100.237C116.156 98.5223 120.245 96.0815 123.804 92.9223C124.571 92.2415 125.322 91.5391 126.039 90.7903C126.452 90.3583 126.853 89.9191 127.245 89.4759C127.278 89.4391 127.313 89.4031 127.346 89.3663C127.36 89.3511 127.372 89.3351 127.385 89.3199C130.062 86.2647 132.211 82.9455 133.838 79.3607H136.647C136.69 79.3607 136.73 79.3575 136.774 79.3575C139.666 79.3039 141.707 77.5511 141.744 74.8839C141.831 68.8319 141.848 62.7759 141.834 56.7239C141.828 54.5727 140.035 52.7263 137.833 52.3839L137.832 52.3855Z" fill="url(#paint0_linear_176_3321)"/>
</g>
<defs>
<linearGradient id="paint0_linear_176_3321" x1="0" y1="53.9194" x2="141.838" y2="53.9194" gradientUnits="userSpaceOnUse">
<stop stop-color="#D7AB07"/>
<stop offset="1" stop-color="#E86555"/>
</linearGradient>
<clipPath id="clip0_176_3321">
<rect width="440.805" height="107.841" fill="white"/>
</clipPath>
</defs>
</svg>
