<svg width="441" height="108" viewBox="0 0 441 108" fill="none" xmlns="http://www.w3.org/2000/svg">
<g clip-path="url(#clip0_176_3320)">
<path d="M210.285 62.5394H175.841C176.649 68.7282 181.044 72.6754 187.681 72.6754C192.435 72.6754 195.933 70.6122 197.817 67.2938L208.581 72.4066C205.621 79.5826 197.549 84.3362 187.502 84.3362C171.985 84.3362 161.849 72.8546 161.849 58.6826C161.849 44.5106 172.613 33.209 186.605 33.209C200.598 33.209 210.913 43.793 210.913 57.3378C210.913 59.3114 210.734 61.1946 210.285 62.5402V62.5394ZM196.651 52.673C196.113 47.4706 192.166 43.9722 186.605 43.9722C181.043 43.9722 177.456 47.0218 176.11 52.673H196.651Z" fill="white"/>
<path d="M259.08 34.2852V83.2596H246.523V77.3396C244.011 81.914 239.167 84.3364 233.068 84.3364C221.856 84.3364 214.231 76.0844 214.231 64.0652V34.286H227.686V62.8996C227.686 68.5508 231.363 72.2284 236.655 72.2284C241.947 72.2284 245.625 68.5508 245.625 62.8996V34.286H259.079L259.08 34.2852Z" fill="white"/>
<path d="M264.192 70.2532L274.148 65.5892C276.75 71.0612 281.145 74.0212 286.706 74.0212C290.922 74.0212 293.612 72.3172 293.612 69.626C293.612 66.3972 289.666 65.41 287.961 64.962L279.35 62.7196C270.47 60.3876 266.164 55.1852 266.164 48.458C266.164 39.3988 273.968 33.21 285.449 33.21C295.495 33.21 303.478 38.0532 306.618 46.0364L296.571 50.7004C294.957 46.4844 290.741 43.9732 285.449 43.9732C281.502 43.9732 279.17 45.498 279.17 48.01C279.17 50.97 282.578 51.8668 284.193 52.3156L293.252 54.7372C301.953 57.0692 306.617 62.0924 306.617 69.0884C306.617 78.1476 298.454 84.3372 286.704 84.3372C276.03 84.3372 267.24 79.1348 264.19 70.2548L264.192 70.2532Z" fill="white"/>
<path d="M353.528 50.9684V83.2596H340.971V78.7748C337.293 82.6316 332.808 84.3364 327.157 84.3364C316.035 84.3364 309.038 78.058 309.038 69.8956C309.038 62.63 314.779 57.8764 324.735 55.8132L340.073 52.5844V50.97C340.073 47.2924 337.024 44.8708 332.539 44.8708C327.785 44.8708 323.838 47.6516 322.403 52.0468L310.832 46.4852C313.702 38.4124 322.133 33.21 332.538 33.21C345.006 33.21 353.527 40.4756 353.527 50.97L353.528 50.9684ZM340.074 64.602V62.27L327.157 65.1404C324.376 65.7684 322.941 67.4724 322.941 69.7148C322.941 72.6748 325.363 74.4684 329.22 74.4684C335.32 74.4684 340.074 70.0732 340.074 64.6012V64.602Z" fill="white"/>
<path d="M364.38 65.5889V45.9449H355.949V34.2841H356.577C361.6 34.2841 364.381 31.7729 364.381 26.7497V19.5737H377.836V34.2841H389.317V45.9449H377.836V65.5889C377.836 70.6121 380.527 73.0337 386.177 73.0337C386.984 73.0337 388.061 72.9441 389.316 72.7649V83.3489C387.523 83.6177 385.1 83.7977 383.037 83.7977C371.197 83.7977 364.38 77.0705 364.38 65.5889Z" fill="white"/>
<path d="M440.174 62.5394H405.73C406.537 68.7282 410.933 72.6754 417.57 72.6754C422.324 72.6754 425.822 70.6122 427.706 67.2938L438.47 72.4066C435.51 79.5826 427.437 84.3362 417.391 84.3362C401.873 84.3362 391.737 72.8546 391.737 58.6826C391.737 44.5106 402.501 33.209 416.494 33.209C430.487 33.209 440.802 43.793 440.802 57.3378C440.802 59.3114 440.623 61.1946 440.174 62.5402V62.5394ZM426.541 52.673C426.002 47.4706 422.056 43.9722 416.494 43.9722C410.933 43.9722 407.345 47.0218 406 52.673H426.541Z" fill="white"/>
<path d="M81.9089 50.1799C81.9065 46.7319 84.6881 43.9071 88.1049 43.8871C91.4897 43.8663 94.3977 46.7447 94.3881 50.1039C94.3777 53.5743 91.6113 56.3255 88.1457 56.3159C84.7081 56.3031 81.9089 53.5495 81.9089 50.1807V50.1799ZM53.7673 43.8919C50.3273 43.9175 47.5633 46.7119 47.5633 50.1671C47.5633 53.6223 50.3705 56.3535 53.8481 56.3151C57.3673 56.2767 60.0065 53.6711 59.9913 50.2535C59.9761 46.7399 57.1641 43.8687 53.7673 43.8919ZM65.9857 85.9791C62.7713 85.9791 59.5801 87.0743 56.9513 88.9711C50.9793 87.7591 45.3289 85.7215 39.9249 82.7239C33.0505 78.9119 27.3825 73.7775 23.7233 66.7511C18.5009 56.7151 19.2153 46.8903 25.4681 37.5335C30.3097 30.2791 37.0785 25.3663 45.0481 21.9471C51.9281 19.0015 59.0657 17.3391 66.5361 16.9231C68.0649 16.8407 69.5809 16.7999 71.0913 16.7999C78.9545 16.7999 86.6481 17.9767 94.1201 20.7639C101.779 23.6271 108.559 27.9071 113.893 34.1135C119.151 40.2207 122.19 47.2879 121.493 55.5791C120.89 62.7455 117.951 68.8759 113.044 74.0583C111.399 75.8031 109.624 77.4831 107.704 78.9239C101.983 83.2159 95.5897 86.1199 88.7273 88.0575C86.4673 86.7695 83.8553 86.0607 81.0393 86.0079C79.1009 85.9791 76.9993 85.9607 74.4169 85.9607C73.0057 85.9607 71.5889 85.9671 70.1777 85.9671C68.7785 85.9727 67.3849 85.9791 65.9849 85.9791H65.9857ZM58.3217 71.0655C62.4849 71.0655 66.6537 71.0191 70.8169 71.0191H81.3329C83.4409 71.0191 85.5601 71.0367 87.6745 71.0367C88.9921 71.0367 90.3153 71.0247 91.6385 71.0071C98.6649 70.9079 104.374 67.9335 108.478 62.3767C112.594 56.8079 113.754 50.4791 111.494 43.7863C108.431 34.7111 100.615 29.3119 91.7849 29.2303C85.9177 29.1719 80.0513 29.1543 74.1841 29.1543C66.1801 29.1543 58.1705 29.1831 50.1721 29.2007C44.6505 29.2127 39.8145 31.2559 35.9321 35.0151C28.9993 41.7191 26.8801 51.7783 32.4129 60.7895C36.4761 67.4175 42.5537 70.8023 50.2833 70.9831C52.9649 71.0415 55.6409 71.0647 58.3225 71.0647L58.3217 71.0655ZM137.831 52.3855C136.162 52.1271 136.175 52.1239 135.857 50.5087C133.642 39.3223 128.629 29.3559 120.509 20.8207C118.24 18.4383 115.673 16.2695 113.039 14.2287C101.903 5.6135 89.0209 0.971903 74.5673 0.114303C68.5489 -0.244897 62.5833 0.244703 56.7089 1.5015C42.2257 4.6047 30.0337 11.2599 20.4265 21.8559C15.1585 27.6631 11.2041 34.1679 8.52011 41.3423C7.25691 44.7167 6.34891 48.1719 5.71851 51.6935C5.65851 52.0287 5.60091 52.2463 5.13531 52.2703C1.92811 52.4447 0.0417129 54.1063 0.0185129 57.0719C-0.0350871 63.1007 0.0249129 69.1295 0.102513 75.1615C0.125713 77.1455 1.70091 78.7807 3.79211 79.2135C4.13771 79.2871 4.49931 79.3439 4.85131 79.3439C7.70971 79.3543 10.5681 79.3607 13.4265 79.3607C14.5593 79.3607 15.6889 79.3607 16.8209 79.3575C17.5881 79.3575 18.9689 79.1567 18.9929 78.1479C19.0065 77.6183 18.6977 77.1423 18.4097 76.6967C14.0729 70.0143 11.7273 61.9487 12.2265 53.9663C12.6385 47.4247 14.8977 41.0343 18.9457 34.9751C22.3073 29.9319 26.6297 25.6823 31.5393 22.1535C45.7809 11.9095 64.0817 7.0639 81.4745 9.9751C93.0361 11.9087 104.259 16.6839 113.274 24.2375C115.791 26.3455 118.099 28.6975 120.15 31.2615C130.116 43.7071 133.575 62.5071 123.702 76.1295C123.327 76.6455 122.918 77.1847 122.858 77.8215C122.74 79.0543 124.054 79.3295 125.009 79.3495C125.153 79.3527 125.301 79.3559 125.445 79.3599H128.69C128.463 79.7783 128.231 80.1919 127.991 80.5991C124.779 86.0479 120.353 90.5127 114.485 93.7623C111.227 95.5679 107.802 97.0151 104.143 97.8479C103.259 98.0487 102.364 98.2247 101.451 98.3487C100.881 98.4279 100.311 98.4903 99.7401 98.5431C99.4433 98.5703 99.1457 98.5879 98.8481 98.6095C98.5785 98.6287 98.3097 98.6511 98.0401 98.6655C97.6889 98.6847 97.3377 98.6967 96.9865 98.7087C96.7673 98.7167 96.5473 98.7263 96.3273 98.7319C95.9529 98.7407 95.5785 98.7463 95.2041 98.7503C95.0105 98.7519 94.8169 98.7551 94.6233 98.7559C94.2977 98.7567 93.9729 98.7559 93.6473 98.7543C92.9625 98.7511 92.2769 98.7455 91.5929 98.7359C90.4665 98.7207 89.3409 98.7023 88.2161 98.6991C88.0441 98.6991 87.8233 98.5431 87.6761 98.3735C87.6305 98.3207 87.5905 98.2663 87.5625 98.2151C86.1865 95.6623 83.9441 94.2575 80.8993 94.2039C79.7441 94.1847 78.5889 94.1735 77.4337 94.1671C76.8657 94.1631 76.2969 94.1631 75.7289 94.1615C75.2921 94.1607 74.8553 94.1575 74.4177 94.1575C74.2505 94.1575 74.0833 94.1583 73.9153 94.1583C72.7289 94.1591 71.5417 94.1623 70.3553 94.1655C68.8993 94.1703 67.4425 94.1743 65.9865 94.1743C64.9137 94.1743 63.8401 94.4487 62.8617 94.9311C61.9961 95.3575 61.2073 95.9487 60.5601 96.6599C59.0761 98.2927 58.3433 100.561 59.1809 102.945C59.2881 103.25 59.4209 103.557 59.5809 103.865C59.7681 104.225 59.9785 104.556 60.2017 104.869C61.1713 106.229 62.4753 107.137 64.1033 107.549C64.7457 107.711 65.4369 107.8 66.1793 107.807C66.4297 107.809 66.6793 107.809 66.9297 107.811C68.8281 107.829 70.7265 107.837 72.6249 107.838C75.2801 107.841 77.9345 107.837 80.5889 107.824C83.0617 107.811 84.9721 106.928 86.3841 105.336C86.8017 104.866 87.1777 104.338 87.5097 103.748C87.5905 103.601 87.6753 103.497 87.7729 103.421C87.7889 103.408 87.8025 103.39 87.8201 103.38C87.8553 103.357 87.8985 103.345 87.9393 103.33C87.9697 103.319 87.9953 103.303 88.0297 103.295C88.0809 103.283 88.1433 103.281 88.2033 103.277C88.2385 103.275 88.2681 103.269 88.3073 103.269H88.3177C89.3753 103.277 90.4297 103.289 91.4849 103.297C91.5689 103.297 91.6529 103.298 91.7369 103.298C92.0177 103.3 92.2985 103.303 92.5801 103.303C93.2345 103.303 93.8881 103.292 94.5425 103.28C94.7137 103.277 94.8841 103.28 95.0553 103.277C95.6625 103.264 96.2705 103.246 96.8785 103.223C98.1273 103.178 99.3745 103.107 100.615 102.989C100.668 102.984 100.722 102.98 100.775 102.975H100.776C100.776 102.975 100.776 102.975 100.777 102.975C100.841 102.969 100.905 102.958 100.969 102.951C104.631 102.564 108.098 101.492 111.506 100.237C116.154 98.5223 120.243 96.0815 123.802 92.9223C124.569 92.2415 125.32 91.5391 126.037 90.7903C126.451 90.3583 126.851 89.9191 127.243 89.4759C127.276 89.4391 127.311 89.4031 127.344 89.3663C127.358 89.3511 127.37 89.3351 127.383 89.3199C130.06 86.2647 132.209 82.9455 133.836 79.3607H136.645C136.688 79.3607 136.728 79.3575 136.772 79.3575C139.664 79.3039 141.705 77.5511 141.742 74.8839C141.829 68.8319 141.846 62.7759 141.832 56.7239C141.826 54.5727 140.033 52.7263 137.831 52.3839L137.831 52.3855Z" fill="white"/>
</g>
<defs>
<clipPath id="clip0_176_3320">
<rect width="440.805" height="107.841" fill="white"/>
</clipPath>
</defs>
</svg>
