<svg width="126" height="31" viewBox="0 0 126 31" fill="none" xmlns="http://www.w3.org/2000/svg">
<g clip-path="url(#clip0_1725_111295)">
<path d="M60.1134 17.8475H50.2831C50.5135 19.6137 51.7679 20.7403 53.6622 20.7403C55.0189 20.7403 56.0174 20.1514 56.555 19.2044L59.6271 20.6636C58.7823 22.7116 56.4783 24.0683 53.6111 24.0683C49.1824 24.0683 46.2896 20.7914 46.2896 16.7467C46.2896 12.702 49.3616 9.47656 53.3551 9.47656C57.3487 9.47656 60.2926 12.4972 60.2926 16.3629C60.2926 16.9262 60.2415 17.4637 60.1134 17.8477V17.8475ZM56.2222 15.0316C56.0685 13.5468 54.9422 12.5484 53.3549 12.5484C51.7676 12.5484 50.7438 13.4187 50.3598 15.0316H56.2222Z" fill="#989FAD"/>
<path d="M74.0391 9.78516V23.7624H70.4552V22.0729C69.7385 23.3784 68.356 24.0698 66.6153 24.0698C63.4154 24.0698 61.2393 21.7146 61.2393 18.2844V9.78538H65.0791V17.9517C65.0791 19.5646 66.1287 20.6141 67.6391 20.6141C69.1494 20.6141 70.199 19.5646 70.199 17.9517V9.78538H74.0389L74.0391 9.78516Z" fill="#989FAD"/>
<path d="M75.498 20.0487L78.3395 18.7176C79.082 20.2793 80.3363 21.1241 81.9234 21.1241C83.1266 21.1241 83.8945 20.6378 83.8945 19.8697C83.8945 18.9482 82.7682 18.6664 82.2816 18.5386L79.824 17.8986C77.2896 17.233 76.0608 15.7483 76.0608 13.8283C76.0608 11.2428 78.2881 9.47656 81.5647 9.47656C84.4319 9.47656 86.7101 10.8588 87.6063 13.1372L84.739 14.4683C84.2783 13.2651 83.075 12.5484 81.5647 12.5484C80.4384 12.5484 79.7726 12.9836 79.7726 13.7005C79.7726 14.5453 80.7455 14.8012 81.2062 14.9293L83.7917 15.6204C86.2749 16.286 87.6061 17.7196 87.6061 19.7163C87.6061 22.3017 85.2765 24.0683 81.9229 24.0683C78.8767 24.0683 76.3679 22.5835 75.4976 20.0491L75.498 20.0487Z" fill="#989FAD"/>
<path d="M100.995 14.5448V23.7607H97.411V22.4808C96.3614 23.5815 95.0814 24.068 93.4686 24.068C90.2942 24.068 88.2974 22.2762 88.2974 19.9466C88.2974 17.873 89.9358 16.5164 92.7772 15.9275L97.1548 15.006V14.5453C97.1548 13.4957 96.2845 12.8046 95.0045 12.8046C93.6478 12.8046 92.5213 13.5982 92.1117 14.8526L88.8093 13.2653C89.6285 10.9613 92.0347 9.47656 95.0043 9.47656C98.5626 9.47656 100.994 11.5502 100.994 14.5453L100.995 14.5448ZM97.155 18.4358V17.7703L93.4686 18.5895C92.6749 18.7687 92.2653 19.255 92.2653 19.895C92.2653 20.7398 92.9565 21.2517 94.0574 21.2517C95.7981 21.2517 97.155 19.9973 97.155 18.4356V18.4358Z" fill="#989FAD"/>
<path d="M104.092 18.7187V13.1123H101.686V9.78428H101.865C103.298 9.78428 104.092 9.06759 104.092 7.63397V5.58594H107.932V9.78428H111.209V13.1123H107.932V18.7187C107.932 20.1523 108.7 20.8434 110.313 20.8434C110.543 20.8434 110.85 20.8178 111.209 20.7667V23.7874C110.697 23.8641 110.005 23.9155 109.416 23.9155C106.037 23.9155 104.092 21.9955 104.092 18.7187Z" fill="#989FAD"/>
<path d="M125.723 17.8475H115.893C116.123 19.6137 117.378 20.7403 119.272 20.7403C120.629 20.7403 121.627 20.1514 122.165 19.2044L125.237 20.6636C124.392 22.7116 122.088 24.0683 119.221 24.0683C114.792 24.0683 111.899 20.7914 111.899 16.7467C111.899 12.702 114.971 9.47656 118.965 9.47656C122.959 9.47656 125.903 12.4972 125.903 16.3629C125.903 16.9262 125.851 17.4637 125.723 17.8477V17.8475ZM121.832 15.0316C121.679 13.5468 120.552 12.5484 118.965 12.5484C117.378 12.5484 116.354 13.4187 115.97 15.0316H121.832Z" fill="#989FAD"/>
<path d="M23.4745 14.3215C23.4738 13.3374 24.2677 12.5312 25.2429 12.5255C26.2089 12.5196 27.0388 13.3411 27.0361 14.2998C27.0331 15.2902 26.2436 16.0754 25.2545 16.0727C24.2734 16.069 23.4745 15.2832 23.4745 14.3217V14.3215ZM15.4429 12.5269C14.4611 12.5342 13.6723 13.3317 13.6723 14.3178C13.6723 15.3039 14.4735 16.0834 15.466 16.0725C16.4704 16.0615 17.2236 15.3179 17.2192 14.3425C17.2149 13.3397 16.4124 12.5203 15.4429 12.5269ZM18.93 24.5386C18.0127 24.5386 17.1019 24.8511 16.3516 25.3925C14.6472 25.0466 13.0346 24.465 11.4923 23.6095C9.53034 22.5216 7.91269 21.0562 6.86836 19.0509C5.37788 16.1866 5.58177 13.3826 7.36632 10.7122C8.74811 8.64179 10.6799 7.23968 12.9545 6.26384C14.918 5.42317 16.9551 4.94872 19.0871 4.82999C19.5234 4.80647 19.9561 4.79483 20.3872 4.79483C22.6313 4.79483 24.8271 5.13069 26.9596 5.92616C29.1453 6.74331 31.0803 7.96482 32.6028 9.73613C34.1035 11.4791 34.9707 13.4961 34.7718 15.8624C34.5996 17.9077 33.7608 19.6573 32.3605 21.1364C31.8909 21.6343 31.3844 22.1138 30.8365 22.525C29.2038 23.75 27.379 24.5788 25.4205 25.1317C24.7755 24.7641 24.03 24.5619 23.2263 24.5468C22.6731 24.5386 22.0733 24.5333 21.3363 24.5333C20.9335 24.5333 20.5292 24.5351 20.1264 24.5351C19.7271 24.5367 19.3294 24.5386 18.9298 24.5386H18.93ZM16.7427 20.2822C17.9309 20.2822 19.1207 20.269 20.3089 20.269H23.3101C23.9118 20.269 24.5166 20.274 25.12 20.274C25.4961 20.274 25.8737 20.2706 26.2513 20.2656C28.2567 20.2372 29.886 19.3884 31.0573 17.8024C32.232 16.2131 32.563 14.4069 31.918 12.4967C31.044 9.90669 28.8131 8.36575 26.2931 8.34247C24.6186 8.3258 22.9444 8.32077 21.2699 8.32077C18.9855 8.32077 16.6996 8.32899 14.4168 8.33402C12.841 8.33744 11.4608 8.92057 10.3527 9.99345C8.37413 11.9068 7.76931 14.7777 9.34837 17.3495C10.508 19.2411 12.2426 20.2071 14.4486 20.2587C15.2139 20.2754 15.9776 20.282 16.743 20.282L16.7427 20.2822ZM39.4345 14.951C38.9583 14.8772 38.9621 14.8763 38.8713 14.4153C38.2391 11.2227 36.8084 8.37831 34.491 5.94237C33.8434 5.26243 33.1108 4.64345 32.3591 4.06101C29.1807 1.60223 25.5043 0.27752 21.3792 0.0327614C19.6616 -0.0697542 17.959 0.0699776 16.2824 0.428668C12.1489 1.31432 8.66934 3.21371 5.92745 6.23781C4.42396 7.89519 3.29538 9.75166 2.52936 11.7992C2.16885 12.7623 1.9097 13.7484 1.72979 14.7535C1.71266 14.8491 1.69623 14.9112 1.56334 14.9181C0.648009 14.9679 0.10963 15.4421 0.103009 16.2885C0.0877115 18.0091 0.104836 19.7297 0.126983 21.4512C0.133604 22.0175 0.583166 22.4841 1.17999 22.6077C1.27863 22.6287 1.38183 22.6449 1.48229 22.6449C2.29808 22.6479 3.11386 22.6497 3.92965 22.6497C4.25295 22.6497 4.57534 22.6497 4.89841 22.6488C5.11737 22.6488 5.51145 22.5915 5.5183 22.3035C5.52218 22.1524 5.43405 22.0165 5.35186 21.8894C4.11413 19.9822 3.4447 17.6803 3.58717 15.4021C3.70476 13.5351 4.34953 11.7113 5.50483 9.98203C6.46423 8.5427 7.69784 7.32987 9.09904 6.32275C13.1636 3.39911 18.3866 2.01618 23.3505 2.84703C26.6502 3.39888 29.8531 4.76172 32.426 6.91752C33.1443 7.51914 33.8033 8.1904 34.3884 8.92217C37.2329 12.4741 38.2199 17.8397 35.4022 21.7275C35.2951 21.8748 35.1784 22.0286 35.1613 22.2104C35.1277 22.5622 35.5026 22.6408 35.7753 22.6465C35.8164 22.6474 35.8586 22.6483 35.8997 22.6494H36.8258C36.7611 22.7689 36.6947 22.8869 36.6262 23.0031C35.7097 24.5582 34.4464 25.8325 32.7717 26.7599C31.842 27.2752 30.8643 27.6882 29.82 27.9259C29.5677 27.9832 29.3124 28.0335 29.0517 28.0689C28.8891 28.0915 28.7266 28.1093 28.5635 28.1243C28.4788 28.1321 28.3939 28.1371 28.309 28.1433C28.232 28.1488 28.1553 28.1552 28.0784 28.1593C27.9781 28.1647 27.8779 28.1682 27.7777 28.1716C27.7151 28.1739 27.6523 28.1766 27.5895 28.1782C27.4827 28.1807 27.3758 28.1823 27.269 28.1835C27.2137 28.1839 27.1585 28.1848 27.1032 28.1851C27.0103 28.1853 26.9176 28.1851 26.8247 28.1846C26.6292 28.1837 26.4335 28.1821 26.2383 28.1794C25.9169 28.175 25.5956 28.1698 25.2746 28.1689C25.2255 28.1689 25.1625 28.1243 25.1205 28.0759C25.1075 28.0609 25.0961 28.0453 25.0881 28.0307C24.6954 27.3022 24.0554 26.9012 23.1864 26.8859C22.8567 26.8804 22.527 26.8772 22.1973 26.8754C22.0352 26.8743 21.8729 26.8743 21.7108 26.8738C21.5861 26.8736 21.4614 26.8727 21.3365 26.8727C21.2888 26.8727 21.2411 26.8729 21.1931 26.8729C20.8546 26.8731 20.5157 26.8741 20.1771 26.875C19.7616 26.8763 19.3458 26.8775 18.9303 26.8775C18.6241 26.8775 18.3177 26.9558 18.0385 27.0935C17.7914 27.2152 17.5663 27.3839 17.3816 27.5869C16.958 28.0529 16.7489 28.7002 16.988 29.3805C17.0185 29.4678 17.0564 29.5554 17.1021 29.6433C17.1555 29.7461 17.2156 29.8404 17.2793 29.9297C17.556 30.3178 17.9282 30.5772 18.3928 30.6945C18.5761 30.7409 18.7734 30.7662 18.9853 30.7683C19.0568 30.769 19.128 30.7687 19.1995 30.7694C19.7413 30.7747 20.2831 30.7767 20.8249 30.7772C21.5827 30.7781 22.3402 30.7767 23.0978 30.7731C23.8035 30.7694 24.3488 30.5174 24.7517 30.063C24.8709 29.929 24.9782 29.7781 25.073 29.6098C25.0961 29.5678 25.1203 29.5383 25.1481 29.5164C25.1527 29.5127 25.1566 29.5077 25.1616 29.5048C25.1716 29.4984 25.184 29.4949 25.1956 29.4906C25.2043 29.4874 25.2116 29.4828 25.2214 29.4806C25.236 29.4771 25.2538 29.4764 25.2709 29.4755C25.281 29.4748 25.2894 29.473 25.3006 29.473H25.3036C25.6054 29.4755 25.9064 29.479 26.2075 29.481C26.2315 29.481 26.2555 29.4815 26.2794 29.4815C26.3596 29.4819 26.4397 29.4828 26.5201 29.4828C26.7068 29.4828 26.8934 29.4796 27.0802 29.4762C27.129 29.4753 27.1776 29.4762 27.2265 29.4753C27.3998 29.4716 27.5733 29.4664 27.7468 29.46C28.1033 29.4472 28.4592 29.4269 28.8131 29.3931C28.8284 29.3917 28.8437 29.3906 28.859 29.3892H28.8592C28.8592 29.3892 28.8592 29.3892 28.8594 29.3892C28.8777 29.3874 28.896 29.3844 28.9142 29.3824C29.9593 29.2719 30.9488 28.9659 31.9214 28.6079C33.248 28.1184 34.4152 27.4218 35.4307 26.5202C35.6497 26.3259 35.8641 26.1254 36.0686 25.9117C36.1867 25.7884 36.3011 25.663 36.413 25.5366C36.4223 25.5261 36.4324 25.5158 36.4417 25.5053C36.4456 25.5009 36.449 25.4964 36.4529 25.492C37.2169 24.6201 37.8301 23.6728 38.2945 22.6497H39.0962C39.1085 22.6497 39.1199 22.6488 39.1325 22.6488C39.9579 22.6335 40.5403 22.1332 40.5508 21.372C40.5757 19.6448 40.5805 17.9164 40.5766 16.1891C40.5748 15.5752 40.0631 15.0482 39.4348 14.9505L39.4345 14.951Z" fill="#989FAD"/>
</g>
<defs>
<clipPath id="clip0_1725_111295">
<rect width="125.806" height="30.7778" fill="white" transform="translate(0.097168)"/>
</clipPath>
</defs>
</svg>
