<svg width="146" height="111" viewBox="0 0 146 111" fill="none" xmlns="http://www.w3.org/2000/svg">
<g clip-path="url(#clip0_176_3324)">
<path d="M84.0088 51.4655C84.0064 47.9295 86.8592 45.0319 90.364 45.0111C93.8352 44.9903 96.8184 47.9423 96.808 51.3871C96.7976 54.9463 93.96 57.7679 90.4056 57.7583C86.88 57.7455 84.0088 54.9207 84.0088 51.4655ZM55.1464 45.0167C51.6184 45.0431 48.7832 47.9087 48.7832 51.4527C48.7832 54.9967 51.6624 57.7975 55.2296 57.7583C58.8392 57.7191 61.5456 55.0463 61.5304 51.5415C61.5152 47.9375 58.6304 44.9935 55.1464 45.0167ZM67.6776 88.1823C64.3808 88.1823 61.108 89.3055 58.4112 91.2511C52.2864 90.0079 46.4912 87.9183 40.948 84.8439C33.8976 80.9343 28.0848 75.6679 24.3312 68.4615C18.9744 58.1687 19.7072 48.0919 26.1208 38.4951C31.0872 31.0551 38.0288 26.0167 46.2024 22.5095C53.2584 19.4887 60.5784 17.7831 68.2416 17.3567C69.8088 17.2727 71.3648 17.2303 72.9136 17.2303C80.9784 17.2303 88.8696 18.4375 96.532 21.2959C104.386 24.2319 111.341 28.6223 116.811 34.9879C122.204 41.2511 125.321 48.4999 124.606 57.0031C123.988 64.3535 120.973 70.6407 115.941 75.9559C114.254 77.7455 112.434 79.4687 110.464 80.9463C104.597 85.3479 98.0392 88.3263 91.0016 90.3143C88.6832 88.9935 86.0048 88.2671 83.1168 88.2127C81.1288 88.1831 78.9736 88.1647 76.3248 88.1647C74.8776 88.1647 73.424 88.1711 71.9768 88.1711C70.5416 88.1767 69.112 88.1831 67.6768 88.1831L67.6776 88.1823ZM59.8168 72.8871C64.0864 72.8871 68.3624 72.8391 72.632 72.8391H83.4176C85.5792 72.8391 87.7536 72.8567 89.9216 72.8567C91.2728 72.8567 92.6304 72.8447 93.9872 72.8263C101.194 72.7239 107.049 69.6735 111.258 63.9751C115.479 58.2639 116.669 51.7727 114.35 44.9087C111.21 35.6007 103.193 30.0639 94.1368 29.9799C88.1192 29.9199 82.1024 29.9023 76.0848 29.9023C67.876 29.9023 59.6608 29.9319 51.4576 29.9503C45.7944 29.9623 40.8344 32.0583 36.8528 35.9135C29.7424 42.7895 27.5688 53.1063 33.244 62.3487C37.4112 69.1463 43.6448 72.6175 51.572 72.8039C54.3224 72.8639 57.0664 72.8879 59.8168 72.8879V72.8871ZM141.362 53.7279C139.651 53.4631 139.665 53.4599 139.338 51.8031C137.066 40.3303 131.924 30.1087 123.596 21.3551C121.27 18.9111 118.637 16.6879 115.935 14.5943C104.514 5.7575 91.3032 0.997505 76.4792 0.117505C70.3064 -0.250495 64.1888 0.251905 58.1632 1.53991C43.3088 4.72231 30.8048 11.5487 20.9512 22.4159C15.548 28.3719 11.4928 35.0439 8.73916 42.4023C7.44316 45.8631 6.51196 49.4071 5.86556 53.0191C5.80396 53.3631 5.74556 53.5863 5.26716 53.6103C1.97836 53.7887 0.0431556 55.4935 0.0191556 58.5351C-0.0360444 64.7183 0.0255556 70.9015 0.105556 77.0879C0.129556 79.1231 1.74476 80.7999 3.88956 81.2431C4.24396 81.3183 4.61516 81.3767 4.97596 81.3767C7.90796 81.3871 10.8392 81.3943 13.7712 81.3943C14.9328 81.3943 16.0912 81.3943 17.2528 81.3911C18.04 81.3911 19.456 81.1847 19.48 80.1503C19.4936 79.6071 19.1776 79.1191 18.8816 78.6623C14.4344 71.8095 12.028 63.5367 12.54 55.3495C12.9632 48.6399 15.2792 42.0863 19.4312 35.8719C22.8784 30.6991 27.3128 26.3415 32.348 22.7223C46.9552 12.2159 65.724 7.24551 83.5624 10.2319C95.42 12.2151 106.93 17.1127 116.176 24.8599C118.757 27.0215 121.126 29.4343 123.228 32.0639C133.45 44.8287 136.997 64.1103 126.871 78.0815C126.486 78.6111 126.067 79.1639 126.006 79.8167C125.886 81.0815 127.233 81.3631 128.212 81.3839C128.36 81.3871 128.511 81.3903 128.659 81.3943H131.987C131.755 81.8231 131.517 82.2479 131.27 82.6655C127.977 88.2535 123.438 92.8327 117.419 96.1655C114.078 98.0175 110.565 99.5015 106.812 100.356C105.905 100.562 104.988 100.742 104.05 100.87C103.466 100.951 102.882 101.015 102.296 101.069C101.991 101.097 101.686 101.115 101.381 101.137C101.105 101.157 100.828 101.179 100.552 101.194C100.192 101.214 99.8312 101.226 99.4712 101.239C99.2464 101.247 99.0208 101.257 98.7952 101.262C98.4112 101.272 98.0272 101.277 97.6432 101.281C97.4448 101.282 97.2464 101.286 97.048 101.286C96.7144 101.287 96.3808 101.286 96.0472 101.285C95.3448 101.282 94.6424 101.275 93.94 101.266C92.7848 101.25 91.6304 101.231 90.4768 101.228C90.3008 101.228 90.0736 101.068 89.9224 100.894C89.8752 100.84 89.8344 100.784 89.8064 100.731C88.3952 98.1127 86.0952 96.6719 82.9728 96.6175C81.788 96.5983 80.6032 96.5871 79.4184 96.5791C78.836 96.5751 78.2528 96.5751 77.6696 96.5735C77.2216 96.5727 76.7736 96.5695 76.3248 96.5695C76.1536 96.5695 75.9816 96.5703 75.8096 96.5703C74.5928 96.5711 73.3752 96.5743 72.1584 96.5783C70.6648 96.5831 69.1712 96.5879 67.6776 96.5879C66.5768 96.5879 65.476 96.8695 64.4728 97.3639C63.5848 97.8015 62.776 98.4071 62.112 99.1375C60.5904 100.812 59.8384 103.138 60.6976 105.583C60.8072 105.897 60.944 106.212 61.108 106.528C61.3 106.898 61.516 107.236 61.7448 107.557C62.7392 108.952 64.0768 109.884 65.7464 110.305C66.4056 110.472 67.1136 110.563 67.8752 110.57C68.132 110.572 68.388 110.571 68.6448 110.574C70.592 110.592 72.5384 110.6 74.4856 110.602C77.2088 110.605 79.9312 110.6 82.6536 110.586C85.1896 110.574 87.1488 109.668 88.5976 108.034C89.0256 107.553 89.4112 107.01 89.752 106.406C89.8352 106.255 89.9216 106.149 90.0224 106.07C90.0392 106.057 90.0528 106.038 90.0704 106.027C90.1064 106.004 90.1512 105.992 90.1928 105.976C90.224 105.964 90.2504 105.948 90.2848 105.94C90.3368 105.928 90.4008 105.926 90.4632 105.922C90.4992 105.919 90.5304 105.912 90.5704 105.913H90.5808C91.6648 105.922 92.7464 105.934 93.8296 105.942C93.916 105.942 94.0024 105.943 94.088 105.943C94.376 105.945 94.664 105.949 94.9528 105.949C95.624 105.949 96.2944 105.937 96.9648 105.926C97.14 105.922 97.3152 105.926 97.4912 105.922C98.1144 105.91 98.7376 105.89 99.3608 105.867C100.642 105.822 101.921 105.749 103.193 105.627C103.248 105.622 103.303 105.618 103.358 105.613H103.358C103.358 105.613 103.358 105.613 103.359 105.613C103.425 105.606 103.49 105.595 103.556 105.589C107.311 105.192 110.867 104.092 114.362 102.806C119.13 101.046 123.324 98.5423 126.973 95.3031C127.759 94.6047 128.53 93.8847 129.265 93.1159C129.69 92.6727 130.1 92.2223 130.502 91.7679C130.536 91.7295 130.572 91.6935 130.606 91.6551C130.619 91.6399 130.632 91.6231 130.646 91.6079C133.391 88.4743 135.595 85.0703 137.264 81.3935H140.145C140.19 81.3935 140.23 81.3903 140.275 81.3903C143.242 81.3351 145.334 79.5383 145.372 76.8023C145.462 70.5951 145.478 64.3847 145.465 58.1775C145.458 55.9711 143.619 54.0775 141.361 53.7263L141.362 53.7279Z" fill="white"/>
</g>
<defs>
<clipPath id="clip0_176_3324">
<rect width="145.471" height="110.604" fill="white"/>
</clipPath>
</defs>
</svg>
