<svg width="32" height="40" viewBox="0 0 32 40" fill="none" xmlns="http://www.w3.org/2000/svg">
<path d="M0.813845 11.3888C0.962535 10.9286 1.131 10.4756 1.31873 10.0313L10.0313 1.31873C10.4756 1.131 10.9286 0.962533 11.3888 0.813844L0.813845 11.3888Z" fill="url(#paint0_linear_455_44484)"/>
<path d="M0.253088 13.6548C0.316414 13.2924 0.391435 12.9331 0.477938 12.5773L12.5773 0.477937C12.9331 0.391434 13.2924 0.316414 13.6548 0.253088L0.253088 13.6548Z" fill="url(#paint1_linear_455_44484)"/>
<path d="M0.0291139 15.5842C0.0473791 15.2716 0.0741939 14.9605 0.109431 14.6512L14.6512 0.109431C14.9605 0.074193 15.2716 0.0473798 15.5842 0.0291138L0.0291139 15.5842Z" fill="url(#paint2_linear_455_44484)"/>
<path d="M0.0150967 17.3034C0.00925413 17.1639 0.00509969 17.0243 0.0026472 16.8845C0.000193084 16.7446 -0.000551771 16.6049 0.00040044 16.4655L16.4655 0.000400302C16.6049 -0.000551909 16.7446 0.000193759 16.8845 0.00264706C17.0243 0.00509955 17.1639 0.00925318 17.3034 0.0150957L0.0150967 17.3034Z" fill="url(#paint3_linear_455_44484)"/>
<path d="M0.152452 18.8715C0.118407 18.6166 0.0899895 18.3607 0.0672739 18.104L18.104 0.0672721C18.3607 0.0899878 18.6166 0.118408 18.8715 0.152452L0.152452 18.8715Z" fill="url(#paint4_linear_455_44484)"/>
<path d="M0.408602 20.3207C0.356572 20.0847 0.309401 19.8476 0.267152 19.6095L19.6095 0.26715C19.8476 0.3094 20.0847 0.356572 20.3207 0.408601L0.408602 20.3207Z" fill="url(#paint5_linear_455_44484)"/>
<path d="M0.763167 21.6713C0.695974 21.4512 0.63308 21.2299 0.574539 21.0073L21.0073 0.574538C21.2299 0.633079 21.4512 0.695972 21.6713 0.763165L0.763167 21.6713Z" fill="url(#paint6_linear_455_44484)"/>
<path d="M1.20264 22.9373C1.12219 22.731 1.04562 22.5233 0.972971 22.3143L22.3143 0.97297C22.5233 1.04562 22.731 1.12219 22.9373 1.20264L1.20264 22.9373Z" fill="url(#paint7_linear_455_44484)"/>
<path d="M1.71753 24.1277C1.62517 23.9338 1.53635 23.7384 1.45112 23.5415L23.5415 1.45112C23.7384 1.53635 23.9338 1.62517 24.1277 1.71753L1.71753 24.1277Z" fill="url(#paint8_linear_455_44484)"/>
<path d="M2.30119 25.2493C2.19786 25.0668 2.09781 24.8825 2.00109 24.6968L24.6968 2.00109C24.8825 2.09781 25.0668 2.19786 25.2493 2.30119L2.30119 25.2493Z" fill="url(#paint9_linear_455_44484)"/>
<path d="M2.94894 26.3069C2.83531 26.135 2.72476 25.9613 2.6173 25.7859L25.7859 2.6173C25.9613 2.72476 26.135 2.83531 26.3069 2.94894L2.94894 26.3069Z" fill="url(#paint10_linear_455_44484)"/>
<path d="M3.65737 27.3037C3.53391 27.1419 3.41334 26.9782 3.2957 26.8127L26.8127 3.2957C26.9782 3.41334 27.1419 3.53391 27.3037 3.65737L3.65737 27.3037Z" fill="url(#paint11_linear_455_44484)"/>
<path d="M4.42441 28.2421C4.29142 28.0901 4.16117 27.9361 4.03369 27.7802L27.7802 4.03369C27.9361 4.16117 28.0901 4.29142 28.2421 4.42441L4.42441 28.2421Z" fill="url(#paint12_linear_455_44484)"/>
<path d="M5.24867 29.1232C5.10629 28.9808 4.96654 28.8363 4.82944 28.6897L28.6897 4.82944C28.8363 4.96654 28.9808 5.10629 29.1232 5.24868L5.24867 29.1232Z" fill="url(#paint13_linear_455_44484)"/>
<path d="M8.35652 2.14083L2.14083 8.35652C2.86497 7.07108 3.76357 5.88112 4.82235 4.82235C5.88112 3.76357 7.07108 2.86497 8.35652 2.14083Z" fill="url(#paint14_linear_455_44484)"/>
<path d="M30.4538 28.6113C30.3052 29.0716 30.1367 29.5245 29.949 29.9688L21.2364 38.6814C20.7921 38.8691 20.3391 39.0376 19.8789 39.1863L30.4538 28.6113Z" fill="url(#paint15_linear_455_44484)"/>
<path d="M31.0146 26.3453C30.9513 26.7077 30.8763 27.067 30.7898 27.4228L18.6904 39.5222C18.3346 39.6087 17.9752 39.6837 17.6129 39.747L31.0146 26.3453Z" fill="url(#paint16_linear_455_44484)"/>
<path d="M31.2386 24.4159C31.2203 24.7285 31.1935 25.0396 31.1583 25.3489L16.6165 39.8907C16.3072 39.9259 15.9961 39.9527 15.6835 39.971L31.2386 24.4159Z" fill="url(#paint17_linear_455_44484)"/>
<path d="M31.2526 22.6967C31.2584 22.8362 31.2626 22.9758 31.265 23.1157C31.2675 23.2555 31.2682 23.3952 31.2673 23.5346L14.8022 39.9997C14.6628 40.0007 14.5231 39.9999 14.3832 39.9975C14.2434 39.995 14.1038 39.9909 13.9643 39.985L31.2526 22.6967Z" fill="url(#paint18_linear_455_44484)"/>
<path d="M31.1152 21.1286C31.1493 21.3835 31.1777 21.6394 31.2004 21.8961L13.1637 39.9328C12.907 39.9101 12.6511 39.8817 12.3962 39.8477L31.1152 21.1286Z" fill="url(#paint19_linear_455_44484)"/>
<path d="M30.8591 19.6794C30.9111 19.9154 30.9583 20.1525 31.0005 20.3906L11.6582 39.733C11.4201 39.6907 11.183 39.6435 10.947 39.5915L30.8591 19.6794Z" fill="url(#paint20_linear_455_44484)"/>
<path d="M30.5045 18.3288C30.5717 18.5489 30.6346 18.7703 30.6932 18.9928L10.2604 39.4256C10.0378 39.367 9.81645 39.3041 9.59636 39.2369L30.5045 18.3288Z" fill="url(#paint21_linear_455_44484)"/>
<path d="M30.0651 17.0628C30.1455 17.2691 30.2221 17.4768 30.2947 17.6858L8.95341 39.0271C8.74439 38.9545 8.53668 38.8779 8.33041 38.7975L30.0651 17.0628Z" fill="url(#paint22_linear_455_44484)"/>
<path d="M29.5502 15.8724C29.6425 16.0663 29.7313 16.2618 29.8166 16.4587L7.72624 38.549C7.52934 38.4638 7.33389 38.3749 7.13999 38.2826L29.5502 15.8724Z" fill="url(#paint23_linear_455_44484)"/>
<path d="M28.9665 14.7508C29.0698 14.9334 29.1699 15.1176 29.2666 15.3034L6.57094 37.999C6.38515 37.9023 6.20094 37.8023 6.01838 37.6989L28.9665 14.7508Z" fill="url(#paint24_linear_455_44484)"/>
<path d="M28.3188 13.6932C28.4324 13.8651 28.5429 14.0388 28.6504 14.2142L5.48178 37.3828C5.30639 37.2754 5.13269 37.1648 4.96075 37.0512L28.3188 13.6932Z" fill="url(#paint25_linear_455_44484)"/>
<path d="M27.6103 12.6964C27.7338 12.8582 27.8543 13.0219 27.972 13.1874L4.45495 36.7044C4.28946 36.5868 4.12576 36.4662 3.96395 36.3427L27.6103 12.6964Z" fill="url(#paint26_linear_455_44484)"/>
<path d="M26.8433 11.758C26.9763 11.91 27.1065 12.064 27.234 12.2199L3.48753 35.9664C3.33161 35.8389 3.1776 35.7087 3.02559 35.5757L26.8433 11.758Z" fill="url(#paint27_linear_455_44484)"/>
<path d="M2.57795 35.1707C2.43141 35.0336 2.28691 34.8938 2.14453 34.7514L26.019 10.877C26.1614 11.0193 26.3012 11.1638 26.4383 11.3104L2.57795 35.1707Z" fill="url(#paint28_linear_455_44484)"/>
<path d="M22.9112 37.8593L29.1269 31.6436C28.4027 32.929 27.5041 34.119 26.4453 35.1778C25.3866 36.2365 24.1966 37.1351 22.9112 37.8593Z" fill="url(#paint29_linear_455_44484)"/>
<defs>
<linearGradient id="paint0_linear_455_44484" x1="0" y1="14.5616" x2="29.1232" y2="14.5616" gradientUnits="userSpaceOnUse">
<stop stop-color="#D7AB07"/>
<stop offset="1" stop-color="#E86555"/>
</linearGradient>
<linearGradient id="paint1_linear_455_44484" x1="0" y1="14.5616" x2="29.1232" y2="14.5616" gradientUnits="userSpaceOnUse">
<stop stop-color="#D7AB07"/>
<stop offset="1" stop-color="#E86555"/>
</linearGradient>
<linearGradient id="paint2_linear_455_44484" x1="0" y1="14.5616" x2="29.1232" y2="14.5616" gradientUnits="userSpaceOnUse">
<stop stop-color="#D7AB07"/>
<stop offset="1" stop-color="#E86555"/>
</linearGradient>
<linearGradient id="paint3_linear_455_44484" x1="0" y1="14.5616" x2="29.1232" y2="14.5616" gradientUnits="userSpaceOnUse">
<stop stop-color="#D7AB07"/>
<stop offset="1" stop-color="#E86555"/>
</linearGradient>
<linearGradient id="paint4_linear_455_44484" x1="0" y1="14.5616" x2="29.1232" y2="14.5616" gradientUnits="userSpaceOnUse">
<stop stop-color="#D7AB07"/>
<stop offset="1" stop-color="#E86555"/>
</linearGradient>
<linearGradient id="paint5_linear_455_44484" x1="0" y1="14.5616" x2="29.1232" y2="14.5616" gradientUnits="userSpaceOnUse">
<stop stop-color="#D7AB07"/>
<stop offset="1" stop-color="#E86555"/>
</linearGradient>
<linearGradient id="paint6_linear_455_44484" x1="0" y1="14.5616" x2="29.1232" y2="14.5616" gradientUnits="userSpaceOnUse">
<stop stop-color="#D7AB07"/>
<stop offset="1" stop-color="#E86555"/>
</linearGradient>
<linearGradient id="paint7_linear_455_44484" x1="0" y1="14.5616" x2="29.1232" y2="14.5616" gradientUnits="userSpaceOnUse">
<stop stop-color="#D7AB07"/>
<stop offset="1" stop-color="#E86555"/>
</linearGradient>
<linearGradient id="paint8_linear_455_44484" x1="0" y1="14.5616" x2="29.1232" y2="14.5616" gradientUnits="userSpaceOnUse">
<stop stop-color="#D7AB07"/>
<stop offset="1" stop-color="#E86555"/>
</linearGradient>
<linearGradient id="paint9_linear_455_44484" x1="0" y1="14.5616" x2="29.1232" y2="14.5616" gradientUnits="userSpaceOnUse">
<stop stop-color="#D7AB07"/>
<stop offset="1" stop-color="#E86555"/>
</linearGradient>
<linearGradient id="paint10_linear_455_44484" x1="0" y1="14.5616" x2="29.1232" y2="14.5616" gradientUnits="userSpaceOnUse">
<stop stop-color="#D7AB07"/>
<stop offset="1" stop-color="#E86555"/>
</linearGradient>
<linearGradient id="paint11_linear_455_44484" x1="0" y1="14.5616" x2="29.1232" y2="14.5616" gradientUnits="userSpaceOnUse">
<stop stop-color="#D7AB07"/>
<stop offset="1" stop-color="#E86555"/>
</linearGradient>
<linearGradient id="paint12_linear_455_44484" x1="0" y1="14.5616" x2="29.1232" y2="14.5616" gradientUnits="userSpaceOnUse">
<stop stop-color="#D7AB07"/>
<stop offset="1" stop-color="#E86555"/>
</linearGradient>
<linearGradient id="paint13_linear_455_44484" x1="0" y1="14.5616" x2="29.1232" y2="14.5616" gradientUnits="userSpaceOnUse">
<stop stop-color="#D7AB07"/>
<stop offset="1" stop-color="#E86555"/>
</linearGradient>
<linearGradient id="paint14_linear_455_44484" x1="0" y1="14.5616" x2="29.1232" y2="14.5616" gradientUnits="userSpaceOnUse">
<stop stop-color="#D7AB07"/>
<stop offset="1" stop-color="#E86555"/>
</linearGradient>
<linearGradient id="paint15_linear_455_44484" x1="2.14453" y1="25.4385" x2="31.2677" y2="25.4385" gradientUnits="userSpaceOnUse">
<stop stop-color="#D7AB07"/>
<stop offset="1" stop-color="#E86555"/>
</linearGradient>
<linearGradient id="paint16_linear_455_44484" x1="2.14453" y1="25.4385" x2="31.2677" y2="25.4385" gradientUnits="userSpaceOnUse">
<stop stop-color="#D7AB07"/>
<stop offset="1" stop-color="#E86555"/>
</linearGradient>
<linearGradient id="paint17_linear_455_44484" x1="2.14453" y1="25.4385" x2="31.2677" y2="25.4385" gradientUnits="userSpaceOnUse">
<stop stop-color="#D7AB07"/>
<stop offset="1" stop-color="#E86555"/>
</linearGradient>
<linearGradient id="paint18_linear_455_44484" x1="2.14453" y1="25.4385" x2="31.2677" y2="25.4385" gradientUnits="userSpaceOnUse">
<stop stop-color="#D7AB07"/>
<stop offset="1" stop-color="#E86555"/>
</linearGradient>
<linearGradient id="paint19_linear_455_44484" x1="2.14453" y1="25.4385" x2="31.2677" y2="25.4385" gradientUnits="userSpaceOnUse">
<stop stop-color="#D7AB07"/>
<stop offset="1" stop-color="#E86555"/>
</linearGradient>
<linearGradient id="paint20_linear_455_44484" x1="2.14453" y1="25.4385" x2="31.2677" y2="25.4385" gradientUnits="userSpaceOnUse">
<stop stop-color="#D7AB07"/>
<stop offset="1" stop-color="#E86555"/>
</linearGradient>
<linearGradient id="paint21_linear_455_44484" x1="2.14453" y1="25.4385" x2="31.2677" y2="25.4385" gradientUnits="userSpaceOnUse">
<stop stop-color="#D7AB07"/>
<stop offset="1" stop-color="#E86555"/>
</linearGradient>
<linearGradient id="paint22_linear_455_44484" x1="2.14453" y1="25.4385" x2="31.2677" y2="25.4385" gradientUnits="userSpaceOnUse">
<stop stop-color="#D7AB07"/>
<stop offset="1" stop-color="#E86555"/>
</linearGradient>
<linearGradient id="paint23_linear_455_44484" x1="2.14453" y1="25.4385" x2="31.2677" y2="25.4385" gradientUnits="userSpaceOnUse">
<stop stop-color="#D7AB07"/>
<stop offset="1" stop-color="#E86555"/>
</linearGradient>
<linearGradient id="paint24_linear_455_44484" x1="2.14453" y1="25.4385" x2="31.2677" y2="25.4385" gradientUnits="userSpaceOnUse">
<stop stop-color="#D7AB07"/>
<stop offset="1" stop-color="#E86555"/>
</linearGradient>
<linearGradient id="paint25_linear_455_44484" x1="2.14453" y1="25.4385" x2="31.2677" y2="25.4385" gradientUnits="userSpaceOnUse">
<stop stop-color="#D7AB07"/>
<stop offset="1" stop-color="#E86555"/>
</linearGradient>
<linearGradient id="paint26_linear_455_44484" x1="2.14453" y1="25.4385" x2="31.2677" y2="25.4385" gradientUnits="userSpaceOnUse">
<stop stop-color="#D7AB07"/>
<stop offset="1" stop-color="#E86555"/>
</linearGradient>
<linearGradient id="paint27_linear_455_44484" x1="2.14453" y1="25.4385" x2="31.2677" y2="25.4385" gradientUnits="userSpaceOnUse">
<stop stop-color="#D7AB07"/>
<stop offset="1" stop-color="#E86555"/>
</linearGradient>
<linearGradient id="paint28_linear_455_44484" x1="2.14453" y1="25.4385" x2="31.2677" y2="25.4385" gradientUnits="userSpaceOnUse">
<stop stop-color="#D7AB07"/>
<stop offset="1" stop-color="#E86555"/>
</linearGradient>
<linearGradient id="paint29_linear_455_44484" x1="2.14453" y1="25.4385" x2="31.2677" y2="25.4385" gradientUnits="userSpaceOnUse">
<stop stop-color="#D7AB07"/>
<stop offset="1" stop-color="#E86555"/>
</linearGradient>
</defs>
</svg>
