<svg width="40" height="40" viewBox="0 0 40 40" fill="none" xmlns="http://www.w3.org/2000/svg">
<path d="M19.2105 8.42105V0H20.7895V8.42105H19.2105Z" fill="url(#paint0_linear_455_44533)"/>
<path d="M18.0941 19.2105L12.7429 13.8593L13.8593 12.7428L19.2105 18.094V10.5263H20.7895V18.094L26.1407 12.7428L27.2571 13.8593L21.9059 19.2105H29.4737V20.7895H21.906L27.2572 26.1406L26.1407 27.2571L20.7895 21.9059V29.4737H19.2105V21.9059L13.8593 27.2571L12.7428 26.1406L18.094 20.7895H10.5263V19.2105H18.0941Z" fill="url(#paint1_linear_455_44533)"/>
<path d="M0 19.2105H8.42105V20.7895H0V19.2105Z" fill="url(#paint2_linear_455_44533)"/>
<path d="M31.5789 19.2105H40V20.7895H31.5789V19.2105Z" fill="url(#paint3_linear_455_44533)"/>
<path d="M19.2105 31.5789V40H20.7895V31.5789H19.2105Z" fill="url(#paint4_linear_455_44533)"/>
<path d="M11.2542 27.6293L5.29962 33.5839L6.4161 34.7003L12.3707 28.7458L11.2542 27.6293Z" fill="url(#paint5_linear_455_44533)"/>
<path d="M27.6293 11.2542L33.5839 5.29959L34.7004 6.41607L28.7458 12.3707L27.6293 11.2542Z" fill="url(#paint6_linear_455_44533)"/>
<path d="M28.7458 27.6293L34.7004 33.5839L33.5839 34.7003L27.6293 28.7458L28.7458 27.6293Z" fill="url(#paint7_linear_455_44533)"/>
<path d="M12.3707 11.2542L6.41611 5.29959L5.29963 6.41607L11.2542 12.3707L12.3707 11.2542Z" fill="url(#paint8_linear_455_44533)"/>
<defs>
<linearGradient id="paint0_linear_455_44533" x1="0" y1="20" x2="40" y2="20" gradientUnits="userSpaceOnUse">
<stop stop-color="#D7AB07"/>
<stop offset="1" stop-color="#E86555"/>
</linearGradient>
<linearGradient id="paint1_linear_455_44533" x1="0" y1="20" x2="40" y2="20" gradientUnits="userSpaceOnUse">
<stop stop-color="#D7AB07"/>
<stop offset="1" stop-color="#E86555"/>
</linearGradient>
<linearGradient id="paint2_linear_455_44533" x1="0" y1="20" x2="40" y2="20" gradientUnits="userSpaceOnUse">
<stop stop-color="#D7AB07"/>
<stop offset="1" stop-color="#E86555"/>
</linearGradient>
<linearGradient id="paint3_linear_455_44533" x1="0" y1="20" x2="40" y2="20" gradientUnits="userSpaceOnUse">
<stop stop-color="#D7AB07"/>
<stop offset="1" stop-color="#E86555"/>
</linearGradient>
<linearGradient id="paint4_linear_455_44533" x1="0" y1="20" x2="40" y2="20" gradientUnits="userSpaceOnUse">
<stop stop-color="#D7AB07"/>
<stop offset="1" stop-color="#E86555"/>
</linearGradient>
<linearGradient id="paint5_linear_455_44533" x1="0" y1="20" x2="40" y2="20" gradientUnits="userSpaceOnUse">
<stop stop-color="#D7AB07"/>
<stop offset="1" stop-color="#E86555"/>
</linearGradient>
<linearGradient id="paint6_linear_455_44533" x1="0" y1="20" x2="40" y2="20" gradientUnits="userSpaceOnUse">
<stop stop-color="#D7AB07"/>
<stop offset="1" stop-color="#E86555"/>
</linearGradient>
<linearGradient id="paint7_linear_455_44533" x1="0" y1="20" x2="40" y2="20" gradientUnits="userSpaceOnUse">
<stop stop-color="#D7AB07"/>
<stop offset="1" stop-color="#E86555"/>
</linearGradient>
<linearGradient id="paint8_linear_455_44533" x1="0" y1="20" x2="40" y2="20" gradientUnits="userSpaceOnUse">
<stop stop-color="#D7AB07"/>
<stop offset="1" stop-color="#E86555"/>
</linearGradient>
</defs>
</svg>
