<svg width="35" height="40" viewBox="0 0 35 40" fill="none" xmlns="http://www.w3.org/2000/svg">
<path fill-rule="evenodd" clip-rule="evenodd" d="M16.8784 0L0.00120926 10.0013V28.755L16.8688 40L34.375 29.9964V9.99806L16.8784 0ZM33.7612 20.4356V10.705L27.0092 14.5633L27.0092 24.4145L33.7612 20.4356ZM33.7612 21.1481V29.6402L27.0092 33.4985V25.1269L33.7612 21.1481ZM26.3954 25.4887V33.8493L17.1881 39.1106V30.9144L26.3954 25.4887ZM16.5743 30.9111V39.066L7.67393 33.1324V25.472L16.5743 30.9111ZM7.67393 24.7526L16.5743 30.1918V20.1721L7.72066 14.9255L7.67393 14.9536L7.67393 24.7526ZM7.06011 25.0969V32.7232L0.615028 28.4264V21.1582L7.06011 25.0969ZM0.615028 20.4389L7.06011 24.3775L7.06011 14.606L7.12043 14.5698L0.615028 10.7148V20.4389ZM17.1881 30.2019L26.3954 24.7762L26.3954 14.9141L17.1881 20.1754V30.2019ZM26.007 14.429L16.884 19.6422L8.31894 14.5666L17.0646 9.31915L26.007 14.429ZM16.4536 8.96997L7.7187 14.2109L0.910133 10.1762L9.57678 5.04038L16.4536 8.96997ZM10.1841 4.68047L17.0571 8.60786L23.7146 4.61336L16.884 0.710174L10.1841 4.68047ZM24.3256 4.96254L17.6681 8.95705L26.6256 14.0756L33.4495 10.1762L24.3256 4.96254Z" fill="url(#paint0_linear_455_44525)"/>
<defs>
<linearGradient id="paint0_linear_455_44525" x1="34.375" y1="20" x2="0.00120926" y2="20" gradientUnits="userSpaceOnUse">
<stop stop-color="#D7AB07"/>
<stop offset="1" stop-color="#E86555"/>
</linearGradient>
</defs>
</svg>
