<svg width="32" height="32" viewBox="0 0 32 32" fill="none" xmlns="http://www.w3.org/2000/svg">
<path d="M13.5373 19.6945L13.5253 19.6665C13.345 19.6172 13.1663 19.5625 12.9893 19.5025L12.9759 19.4971C11.134 18.8669 9.53525 17.6766 8.40343 16.0926C7.27162 14.5087 6.6634 12.6105 6.66394 10.6638C6.66334 8.2746 7.57901 5.97616 9.22232 4.24187C10.8656 2.50759 13.1115 1.46954 15.4972 1.34154C17.883 1.21354 20.227 2.00533 22.0464 3.55382C23.8659 5.10231 25.0222 7.28959 25.2773 9.66512C25.3359 10.2145 24.8826 10.6638 24.3306 10.6638C23.7786 10.6638 23.3373 10.2131 23.2639 9.66646C23.0866 8.37615 22.5689 7.15634 21.764 6.13238C20.9591 5.10843 19.896 4.31728 18.6841 3.84022C17.4722 3.36317 16.1551 3.21744 14.8682 3.41799C13.5813 3.61855 12.371 4.15816 11.3617 4.98137C10.3524 5.80458 9.5805 6.8817 9.12535 8.10202C8.67021 9.32234 8.54821 10.6419 8.77191 11.9249C8.99561 13.208 9.55693 14.4084 10.3982 15.4027C11.2394 16.397 12.3303 17.1494 13.5586 17.5825C13.806 17.0232 14.2382 16.5659 14.7827 16.2873C15.3272 16.0088 15.9508 15.9258 16.5492 16.0524C17.1475 16.179 17.6842 16.5074 18.0692 16.9826C18.4542 17.4578 18.6642 18.0509 18.6639 18.6625C18.6646 19.2788 18.4516 19.8764 18.0614 20.3534C17.6712 20.8305 17.1278 21.1577 16.5235 21.2794C15.9193 21.401 15.2916 21.3096 14.7471 21.0206C14.2027 20.7317 13.7752 20.263 13.5373 19.6945ZM12.1706 21.3345C10.5985 20.7698 9.17068 19.8647 7.98927 18.6838C7.25879 18.7688 6.58497 19.1191 6.09581 19.6682C5.60666 20.2174 5.33624 20.927 5.33594 21.6625V22.8891C5.33594 23.6518 5.57327 24.3958 6.01594 25.0171C8.07194 27.9025 11.4373 29.3305 15.9973 29.3305C20.5573 29.3305 23.9239 27.9011 25.9839 25.0171C26.4287 24.3952 26.6678 23.6497 26.6679 22.8851V21.6611C26.6679 20.8659 26.3522 20.1033 25.7902 19.5407C25.2282 18.9782 24.4658 18.6618 23.6706 18.6611H20.6639C20.6641 19.6543 20.3475 20.6216 19.7601 21.4223C19.1727 22.2231 18.3451 22.8156 17.3977 23.1137C16.4504 23.4117 15.4326 23.3997 14.4925 23.0795C13.5525 22.7593 12.739 22.1488 12.1706 21.3345ZM21.3306 10.6638C21.3306 9.88436 21.1598 9.1144 20.8301 8.40812C20.5005 7.70183 20.02 7.07638 19.4226 6.57579C18.868 6.11188 18.2249 5.76558 17.5324 5.55793C16.8398 5.35027 16.1122 5.28561 15.3939 5.36785C14.6756 5.4501 13.9815 5.67755 13.3538 6.03637C12.7261 6.39519 12.1779 6.8779 11.7425 7.45515C11.3072 8.0324 10.9937 8.69215 10.8213 9.3943C10.6488 10.0964 10.6209 10.8263 10.7392 11.5396C10.8576 12.2529 11.1197 12.9346 11.5097 13.5434C11.8997 14.1523 12.4095 14.6754 13.0079 15.0811C13.8468 14.381 14.9047 13.9974 15.9973 13.9971C17.1346 13.9971 18.1773 14.4038 18.9879 15.0811C19.7097 14.5923 20.3006 13.9341 20.709 13.164C21.1174 12.3939 21.3308 11.5355 21.3306 10.6638Z" fill="url(#paint0_linear_473_72042)"/>
<defs>
<linearGradient id="paint0_linear_473_72042" x1="5.33594" y1="15.3293" x2="26.6679" y2="15.3293" gradientUnits="userSpaceOnUse">
<stop stop-color="#D7AB07"/>
<stop offset="1" stop-color="#E86555"/>
</linearGradient>
</defs>
</svg>
