<svg width="32" height="32" viewBox="0 0 32 32" fill="none" xmlns="http://www.w3.org/2000/svg">
<path d="M15 12C14.2812 12 13.5677 11.9688 12.8594 11.9062C12.151 11.8438 11.4375 11.7448 10.7188 11.6094C10.3646 11.5365 9.95312 11.4427 9.48438 11.3281C9.01562 11.2135 8.53125 11.0573 8.03125 10.8594C7.53125 10.6615 7.04167 10.4427 6.5625 10.2031C6.08333 9.96354 5.65104 9.68229 5.26562 9.35938C4.88021 9.03646 4.57812 8.68229 4.35938 8.29688C4.14062 7.91146 4.02083 7.47917 4 7C4 6.53125 4.11458 6.10417 4.34375 5.71875C4.57292 5.33333 4.88021 4.97917 5.26562 4.65625C5.65104 4.33333 6.07812 4.04688 6.54688 3.79688C7.01562 3.54688 7.50521 3.32812 8.01562 3.14062C8.52604 2.95312 9.01042 2.80208 9.46875 2.6875C9.92708 2.57292 10.3438 2.47396 10.7188 2.39062C11.4271 2.25521 12.1354 2.15625 12.8438 2.09375C13.5521 2.03125 14.2708 2 15 2C15.7188 2 16.4323 2.03125 17.1406 2.09375C17.849 2.15625 18.5625 2.25521 19.2812 2.39062C19.6354 2.46354 20.0469 2.55729 20.5156 2.67188C20.9844 2.78646 21.4688 2.94271 21.9688 3.14062C22.4688 3.33854 22.9583 3.55729 23.4375 3.79688C23.9167 4.03646 24.349 4.31771 24.7344 4.64062C25.1198 4.96354 25.4219 5.31771 25.6406 5.70312C25.8594 6.08854 25.9792 6.52083 26 7C26 7.46875 25.8854 7.89583 25.6562 8.28125C25.4271 8.66667 25.1198 9.02083 24.7344 9.34375C24.349 9.66667 23.9219 9.95312 23.4531 10.2031C22.9844 10.4531 22.4948 10.6719 21.9844 10.8594C21.474 11.0469 20.9896 11.2031 20.5312 11.3281C20.0729 11.4531 19.6562 11.5469 19.2812 11.6094C18.5729 11.7448 17.8646 11.8438 17.1562 11.9062C16.4479 11.9688 15.7292 12 15 12ZM15 14C15.4688 14 15.9896 13.9844 16.5625 13.9531C17.1354 13.9219 17.7344 13.8698 18.3594 13.7969C18.9844 13.724 19.6094 13.6302 20.2344 13.5156C20.8594 13.401 21.4688 13.25 22.0625 13.0625C22.6562 12.875 23.2083 12.6667 23.7188 12.4375C24.2292 12.2083 24.6771 11.9323 25.0625 11.6094C25.1979 11.4948 25.3073 11.3854 25.3906 11.2812C25.474 11.1771 25.5781 11.0573 25.7031 10.9219C25.724 10.901 25.7708 10.8698 25.8438 10.8281C25.9167 10.7865 25.9688 10.75 26 10.7188V13C26 13.4792 25.8802 13.9115 25.6406 14.2969C25.401 14.6823 25.0885 15.0417 24.7031 15.375C24.3177 15.7083 23.875 15.9948 23.375 16.2344C22.875 16.474 22.375 16.6927 21.875 16.8906C21.375 17.0885 20.8802 17.2448 20.3906 17.3594C19.901 17.474 19.4792 17.5677 19.125 17.6406C18.4375 17.7656 17.75 17.8542 17.0625 17.9062C16.375 17.9583 15.6875 17.9896 15 18C14.3125 18 13.625 17.974 12.9375 17.9219C12.25 17.8698 11.5625 17.776 10.875 17.6406C10.5208 17.5781 10.1042 17.4844 9.625 17.3594C9.14583 17.2344 8.65104 17.0781 8.14062 16.8906C7.63021 16.7031 7.13021 16.4844 6.64062 16.2344C6.15104 15.9844 5.70833 15.6979 5.3125 15.375C4.91667 15.0521 4.59896 14.6979 4.35938 14.3125C4.11979 13.9271 4 13.4896 4 13V10.7188C4.03125 10.7396 4.08333 10.7708 4.15625 10.8125C4.22917 10.8542 4.27604 10.8906 4.29688 10.9219C4.41146 11.0469 4.51042 11.1615 4.59375 11.2656C4.67708 11.3698 4.79167 11.4844 4.9375 11.6094C5.3125 11.9219 5.75521 12.1979 6.26562 12.4375C6.77604 12.6771 7.32812 12.8854 7.92188 13.0625C8.51562 13.2396 9.125 13.3854 9.75 13.5C10.375 13.6146 11 13.7135 11.625 13.7969C12.25 13.8802 12.849 13.9323 13.4219 13.9531C13.9948 13.974 14.5208 13.9896 15 14ZM15 20C15.4688 20 15.9896 19.9844 16.5625 19.9531C17.1354 19.9219 17.7344 19.8698 18.3594 19.7969C18.9844 19.724 19.6094 19.6302 20.2344 19.5156C20.8594 19.401 21.4688 19.25 22.0625 19.0625C22.6562 18.875 23.2083 18.6667 23.7188 18.4375C24.2292 18.2083 24.6771 17.9323 25.0625 17.6094C25.1979 17.4948 25.3073 17.3854 25.3906 17.2812C25.474 17.1771 25.5781 17.0573 25.7031 16.9219C25.724 16.901 25.7708 16.8698 25.8438 16.8281C25.9167 16.7865 25.9688 16.75 26 16.7188V19C26 19.4792 25.8802 19.9115 25.6406 20.2969C25.401 20.6823 25.0885 21.0417 24.7031 21.375C24.3177 21.7083 23.875 21.9948 23.375 22.2344C22.875 22.474 22.375 22.6927 21.875 22.8906C21.375 23.0885 20.8802 23.2448 20.3906 23.3594C19.901 23.474 19.4792 23.5677 19.125 23.6406C18.4375 23.7656 17.75 23.8542 17.0625 23.9062C16.375 23.9583 15.6875 23.9896 15 24C14.3125 24 13.625 23.974 12.9375 23.9219C12.25 23.8698 11.5625 23.776 10.875 23.6406C10.5208 23.5677 10.1042 23.474 9.625 23.3594C9.14583 23.2448 8.65104 23.0885 8.14062 22.8906C7.63021 22.6927 7.13021 22.474 6.64062 22.2344C6.15104 21.9948 5.70833 21.7083 5.3125 21.375C4.91667 21.0417 4.59896 20.6875 4.35938 20.3125C4.11979 19.9375 4 19.5 4 19V16.7188C4.03125 16.7396 4.08333 16.7708 4.15625 16.8125C4.22917 16.8542 4.27604 16.8906 4.29688 16.9219C4.41146 17.0469 4.51042 17.1615 4.59375 17.2656C4.67708 17.3698 4.79167 17.4844 4.9375 17.6094C5.3125 17.9219 5.75521 18.1979 6.26562 18.4375C6.77604 18.6771 7.32812 18.8854 7.92188 19.0625C8.51562 19.2396 9.125 19.3854 9.75 19.5C10.375 19.6146 11 19.7135 11.625 19.7969C12.25 19.8802 12.849 19.9323 13.4219 19.9531C13.9948 19.974 14.5208 19.9896 15 20ZM15 26C15.4688 26 15.9896 25.9844 16.5625 25.9531C17.1354 25.9219 17.7344 25.8698 18.3594 25.7969C18.9844 25.724 19.6094 25.6302 20.2344 25.5156C20.8594 25.401 21.4688 25.25 22.0625 25.0625C22.6562 24.875 23.2083 24.6667 23.7188 24.4375C24.2292 24.2083 24.6771 23.9323 25.0625 23.6094C25.1979 23.4948 25.3073 23.3854 25.3906 23.2812C25.474 23.1771 25.5781 23.0573 25.7031 22.9219C25.724 22.901 25.7708 22.8698 25.8438 22.8281C25.9167 22.7865 25.9688 22.75 26 22.7188V25C26 25.4792 25.8802 25.9115 25.6406 26.2969C25.401 26.6823 25.0885 27.0417 24.7031 27.375C24.3177 27.7083 23.875 27.9948 23.375 28.2344C22.875 28.474 22.375 28.6927 21.875 28.8906C21.375 29.0885 20.8802 29.2448 20.3906 29.3594C19.901 29.474 19.4792 29.5677 19.125 29.6406C18.4375 29.7656 17.75 29.8542 17.0625 29.9062C16.375 29.9583 15.6875 29.9896 15 30C14.3125 30 13.625 29.974 12.9375 29.9219C12.25 29.8698 11.5625 29.776 10.875 29.6406C10.5208 29.5781 10.1042 29.4844 9.625 29.3594C9.14583 29.2344 8.65104 29.0781 8.14062 28.8906C7.63021 28.7031 7.13021 28.4844 6.64062 28.2344C6.15104 27.9844 5.70833 27.6979 5.3125 27.375C4.91667 27.0521 4.59896 26.6979 4.35938 26.3125C4.11979 25.9271 4 25.4896 4 25V22.7188C4.03125 22.7396 4.08333 22.7708 4.15625 22.8125C4.22917 22.8542 4.27604 22.8906 4.29688 22.9219C4.41146 23.0469 4.51042 23.1615 4.59375 23.2656C4.67708 23.3698 4.79167 23.4844 4.9375 23.6094C5.3125 23.9219 5.75521 24.1979 6.26562 24.4375C6.77604 24.6771 7.32812 24.8854 7.92188 25.0625C8.51562 25.2396 9.125 25.3854 9.75 25.5C10.375 25.6146 11 25.7135 11.625 25.7969C12.25 25.8802 12.849 25.9323 13.4219 25.9531C13.9948 25.974 14.5208 25.9896 15 26Z" fill="url(#paint0_linear_473_72045)"/>
<defs>
<linearGradient id="paint0_linear_473_72045" x1="4" y1="16" x2="26" y2="16" gradientUnits="userSpaceOnUse">
<stop stop-color="#D7AB07"/>
<stop offset="1" stop-color="#E86555"/>
</linearGradient>
</defs>
</svg>
