<svg width="62" height="48" viewBox="0 0 62 48" fill="none" xmlns="http://www.w3.org/2000/svg">
<path d="M51.9091 3.97285C47.8904 2.09251 43.6389 0.756455 39.2669 0C38.7224 0.984535 38.0861 2.30874 37.6474 3.36221C32.9337 2.65335 28.2633 2.65335 23.6362 3.36221C23.1977 2.30898 22.5471 0.984535 21.9975 0C17.6213 0.756784 13.3661 2.09624 9.34552 3.98266C1.34477 16.0731 -0.824172 27.8628 0.26018 39.4858C5.56681 43.4485 10.7095 45.8559 15.7655 47.4312C17.0221 45.7033 18.1329 43.8738 19.0863 41.9618C17.2709 41.2707 15.5209 40.419 13.857 39.4168C14.2948 39.0922 14.7224 38.754 15.139 38.4026C25.2218 43.1187 36.1774 43.1187 46.14 38.4026C46.5585 38.7517 46.9859 39.0899 47.4219 39.4168C45.7553 40.4217 44.002 41.2751 42.183 41.9668C43.1419 43.8866 44.2507 45.7178 45.5038 47.436C50.5646 45.8609 55.712 43.4536 61.0186 39.4858C62.2911 26.012 58.8451 14.3304 51.9091 3.97285ZM20.46 32.3379C17.4332 32.3379 14.9509 29.5121 14.9509 26.0711C14.9509 22.6302 17.3803 19.7996 20.46 19.7996C23.5398 19.7996 26.0221 22.6251 25.9691 26.0711C25.9739 29.5121 23.54 32.3379 20.46 32.3379ZM40.8188 32.3379C37.7919 32.3379 35.3099 29.5121 35.3099 26.0711C35.3099 22.6302 37.739 19.7996 40.8188 19.7996C43.8988 19.7996 46.3808 22.6251 46.3279 26.0711C46.3279 29.5121 43.8988 32.3379 40.8188 32.3379Z" fill="#5865F2"/>
</svg>
