<svg width="48" height="48" viewBox="0 0 48 48" fill="none" xmlns="http://www.w3.org/2000/svg">
<path d="M43.6633 12.4041V22.5265C43.6633 25.0472 42.8297 27.1709 41.3411 28.6397C39.8723 30.1282 37.7486 30.9618 35.2279 30.9618V34.5543C35.2279 35.9039 33.7195 36.7177 32.608 35.9635L30.6828 34.6932C30.8614 34.0779 30.9408 33.4031 30.9408 32.6886V24.6106C30.9408 20.5616 28.2415 17.8623 24.1925 17.8623H10.7158C10.4379 17.8623 10.1799 17.8822 9.92188 17.902V12.4041C9.92188 7.34289 13.296 3.96875 18.3572 3.96875H35.2279C40.2891 3.96875 43.6633 7.34289 43.6633 12.4041Z" fill="#F3E5B2" stroke="#EDD88D" stroke-width="1.83211" stroke-miterlimit="10" stroke-linecap="round" stroke-linejoin="round"/>
<path d="M30.942 24.6077V32.6857C30.942 33.4002 30.8626 34.0751 30.684 34.6903C29.9496 37.608 27.5282 39.434 24.1937 39.434H18.7951L12.8011 43.4235C11.9079 44.0387 10.717 43.3838 10.717 42.312V39.434C8.69253 39.434 7.00548 38.7592 5.83446 37.5882C4.64358 36.3973 3.96875 34.7102 3.96875 32.6857V24.6077C3.96875 20.8366 6.3108 18.2365 9.92311 17.8991C10.1811 17.8793 10.4391 17.8594 10.717 17.8594H24.1937C28.2427 17.8594 30.942 20.5587 30.942 24.6077Z" fill="url(#paint0_linear_606_922)" stroke="#EDD88D" stroke-width="1.83211" stroke-miterlimit="10" stroke-linecap="round" stroke-linejoin="round"/>
<defs>
<linearGradient id="paint0_linear_606_922" x1="3.96875" y1="30.7601" x2="30.942" y2="30.7601" gradientUnits="userSpaceOnUse">
<stop stop-color="#D7AB07"/>
<stop offset="1" stop-color="#E86555"/>
</linearGradient>
</defs>
</svg>
