<svg width="40" height="32" viewBox="0 0 40 32" fill="none" xmlns="http://www.w3.org/2000/svg">
<path d="M3.96958 31.7566C2.87794 31.7566 1.93517 31.3762 1.14125 30.6154C0.380418 29.8214 0 28.8787 0 27.787L0 3.96957C0 2.87794 0.380418 1.95171 1.14125 1.19087C1.93517 0.396957 2.87794 0 3.96958 0H35.7262C36.8178 0 37.7441 0.396957 38.5049 1.19087C39.2988 1.95171 39.6958 2.87794 39.6958 3.96957V27.787C39.6958 28.8787 39.2988 29.8214 38.5049 30.6154C37.7441 31.3762 36.8178 31.7566 35.7262 31.7566H3.96958ZM19.8479 17.8631L35.7262 7.93915V3.96957L19.8479 13.8935L3.96958 3.96957V7.93915L19.8479 17.8631Z" fill="#E86555"/>
</svg>
