<svg width="23" height="32" viewBox="0 0 23 32" fill="none" xmlns="http://www.w3.org/2000/svg">
<path d="M3.23175 17.7512C1.69788 19.202 0.560716 21.068 0 23.1693L2.52357 25.6929C2.64723 23.3694 3.68533 21.2887 5.28453 19.804L3.23175 17.7512Z" fill="url(#paint0_linear_473_72048)"/>
<path d="M11.8155 14.499C11.6592 14.5073 11.5019 14.5116 11.3435 14.5116C10.761 14.5116 10.1919 14.4542 9.64149 14.3446C5.79151 13.5785 2.85995 10.2638 2.6795 6.23325L1.05985 7.8529L0.143367 8.76939C0.61635 10.582 1.51772 12.2216 2.73286 13.5734L3.60883 14.4494L5.33229 16.1729L7.47749 18.3181L9.64149 20.4821L9.67801 20.5186L12.963 23.8036C13.1816 23.9688 13.3765 24.1637 13.5417 24.3823C13.9156 24.8771 14.1374 25.4933 14.1374 26.1613C14.1374 26.8602 13.8946 27.5024 13.4888 28.0082C12.9475 28.6828 12.1162 29.1147 11.184 29.1147C10.6187 29.1147 10.0904 28.9558 9.64149 28.6803C8.79513 28.161 8.23059 27.2271 8.23059 26.1613C8.23059 25.2291 8.66247 24.3978 9.33705 23.8565L7.29061 21.81C6.09661 22.8791 5.34524 24.4324 5.34524 26.1613C5.34524 27.5088 5.80175 28.7498 6.56856 29.7378L7.6074 30.7767C8.20399 31.2397 8.89275 31.5895 9.64149 31.7941C10.1329 31.9283 10.65 32 11.184 32C12.6063 32 13.9099 31.4914 14.9227 30.6462L15.5247 30.0442L15.6689 29.9C16.2047 29.258 16.6052 28.4991 16.8267 27.6672C16.9545 27.1868 17.0227 26.682 17.0227 26.1613C17.0227 24.829 16.5765 23.601 15.8254 22.6185C15.4839 22.2204 15.1286 21.8651 14.7268 21.5198L10.7082 17.5012L10.5964 17.3894L9.64149 16.4345L8.18586 14.9789C8.65978 14.8522 9.14567 14.7548 9.64149 14.6887C10.1461 14.6215 10.661 14.5868 11.184 14.5868C11.4335 14.5868 11.6812 14.5947 11.9268 14.6103L11.8155 14.499Z" fill="url(#paint1_linear_473_72048)"/>
<path d="M11.3435 2.88533C12.9747 2.88534 14.2969 4.20762 14.2969 5.83874C14.2969 6.68176 13.9437 7.44229 13.3772 7.98041L15.4178 10.021C16.5063 8.96042 17.1823 7.47852 17.1823 5.83874C17.1823 4.56718 16.7758 3.39055 16.0857 2.43171L14.7506 1.09657C13.7917 0.406472 12.6151 0 11.3435 0C10.7515 0 10.18 0.088123 9.64149 0.25197C8.68856 0.541914 7.83891 1.06899 7.16128 1.76447C6.47507 2.46875 5.96524 3.34574 5.70318 4.32405C5.57379 4.80711 5.50479 5.31486 5.50479 5.83873C5.50479 7.17888 5.95629 8.41356 6.71548 9.39898L7.78328 10.4668L9.64149 12.325L11.8155 14.499L11.9268 14.6103L14.3384 17.0219C13.3832 17.2771 12.3792 17.4132 11.3435 17.4132C11.0925 17.4132 10.8434 17.4052 10.5964 17.3894L10.7082 17.5012C10.8657 17.4927 11.0243 17.4884 11.184 17.4884C15.8269 17.4884 19.6177 21.1367 19.8459 25.7229L20.2555 25.3134L21.4427 24.1262L22.3746 23.1943C21.9618 21.633 21.2309 20.2011 20.2555 18.972C20.0722 18.7411 19.8804 18.5173 19.6804 18.3012L19.044 17.6649L17.2022 15.823L15.0575 13.6784L12.8582 11.4791L9.64149 8.26236L9.60721 8.22808C9.35694 8.04589 9.13638 7.82534 8.9542 7.57507C8.59943 7.08772 8.39014 6.48767 8.39014 5.83873C8.39014 5.05064 8.69882 4.33465 9.20187 3.80505C9.33542 3.66445 9.48267 3.53699 9.64149 3.42481C10.1226 3.08498 10.7097 2.88533 11.3435 2.88533Z" fill="url(#paint2_linear_473_72048)"/>
<path d="M22.5185 8.86448L20.2555 6.60149L20.0017 6.34771C19.8733 8.56707 18.9103 10.5626 17.4219 12.0251L19.4737 14.0769C19.7481 13.8061 20.0091 13.5216 20.2555 13.2246C21.2983 11.9678 22.0803 10.4867 22.5185 8.86448Z" fill="url(#paint3_linear_473_72048)"/>
<defs>
<linearGradient id="paint0_linear_473_72048" x1="0" y1="16" x2="22.5185" y2="16" gradientUnits="userSpaceOnUse">
<stop stop-color="#D7AB07"/>
<stop offset="1" stop-color="#E86555"/>
</linearGradient>
<linearGradient id="paint1_linear_473_72048" x1="0" y1="16" x2="22.5185" y2="16" gradientUnits="userSpaceOnUse">
<stop stop-color="#D7AB07"/>
<stop offset="1" stop-color="#E86555"/>
</linearGradient>
<linearGradient id="paint2_linear_473_72048" x1="0" y1="16" x2="22.5185" y2="16" gradientUnits="userSpaceOnUse">
<stop stop-color="#D7AB07"/>
<stop offset="1" stop-color="#E86555"/>
</linearGradient>
<linearGradient id="paint3_linear_473_72048" x1="0" y1="16" x2="22.5185" y2="16" gradientUnits="userSpaceOnUse">
<stop stop-color="#D7AB07"/>
<stop offset="1" stop-color="#E86555"/>
</linearGradient>
</defs>
</svg>
