<svg width="48" height="48" viewBox="0 0 48 48" fill="none" xmlns="http://www.w3.org/2000/svg">
<g clip-path="url(#clip0_473_74168)">
<path d="M1.01069 23.5556C1.00958 27.5622 2.05648 31.4744 4.04713 34.9226L0.820313 46.7043L12.8774 43.5429C16.2122 45.3583 19.9486 46.3095 23.7456 46.3098H23.7555C36.29 46.3098 46.4934 36.1102 46.4987 23.5735C46.5011 17.4986 44.1375 11.7861 39.8431 7.48836C35.5494 3.19098 29.839 0.823085 23.7546 0.820313C11.2187 0.820313 1.01605 11.0194 1.01088 23.5556" fill="url(#paint0_linear_473_74168)"/>
<path d="M0.197772 23.5507C0.196478 27.7015 1.28089 31.7536 3.34253 35.3253L0 47.5293L12.4894 44.2546C15.9306 46.1309 19.8051 47.1201 23.7476 47.1216H23.7577C36.7419 47.1216 47.3118 36.555 47.3173 23.5696C47.3196 17.2764 44.8709 11.3586 40.4231 6.90685C35.9747 2.4557 30.06 0.00258767 23.7577 0C10.7713 0 0.202947 10.5651 0.197772 23.5507ZM7.63565 34.7102L7.16932 33.97C5.20897 30.8529 4.17428 27.2509 4.17576 23.5522C4.17982 12.7589 12.9638 3.97761 23.7651 3.97761C28.9959 3.97983 33.9117 6.01891 37.6091 9.71854C41.3064 13.4185 43.3408 18.3369 43.3395 23.5681C43.3347 34.3614 34.5505 43.1438 23.7577 43.1438H23.75C20.2357 43.1419 16.7892 42.1982 13.7834 40.4147L13.0681 39.9905L5.65664 41.9337L7.63565 34.7102Z" fill="url(#paint1_linear_473_74168)"/>
<path d="M17.8719 13.7027C17.4309 12.7225 16.9668 12.7028 16.5474 12.6856C16.204 12.6708 15.8114 12.6719 15.4192 12.6719C15.0266 12.6719 14.3887 12.8196 13.8496 13.4083C13.3099 13.9975 11.7891 15.4215 11.7891 18.3176C11.7891 21.2138 13.8986 24.0129 14.1926 24.406C14.4871 24.7984 18.2651 30.932 24.2485 33.2915C29.2213 35.2524 30.2332 34.8624 31.3125 34.7641C32.3919 34.6661 34.7955 33.3405 35.2858 31.9659C35.7766 30.5915 35.7766 29.4134 35.6294 29.1672C35.4823 28.9219 35.0897 28.7746 34.501 28.4803C33.9123 28.1861 31.018 26.7617 30.4785 26.5653C29.9388 26.369 29.5464 26.271 29.1538 26.8604C28.7612 27.449 27.6339 28.7746 27.2903 29.1672C26.9471 29.5607 26.6035 29.6097 26.0149 29.3152C25.4259 29.0198 23.53 28.399 21.2808 26.3937C19.5308 24.8334 18.3494 22.9065 18.0059 22.3171C17.6625 21.7285 17.9692 21.4095 18.2643 21.1162C18.5288 20.8524 18.8532 20.4288 19.1478 20.0852C19.4413 19.7414 19.5393 19.4961 19.7356 19.1035C19.9321 18.7106 19.8337 18.3668 19.6868 18.0724C19.5393 17.7779 18.3954 14.8666 17.8719 13.7027Z" fill="white"/>
</g>
<defs>
<linearGradient id="paint0_linear_473_74168" x1="2284.74" y1="4589.22" x2="2284.74" y2="0.820312" gradientUnits="userSpaceOnUse">
<stop stop-color="#1FAF38"/>
<stop offset="1" stop-color="#60D669"/>
</linearGradient>
<linearGradient id="paint1_linear_473_74168" x1="2365.87" y1="4752.93" x2="2365.87" y2="0" gradientUnits="userSpaceOnUse">
<stop stop-color="#F9F9F9"/>
<stop offset="1" stop-color="white"/>
</linearGradient>
<clipPath id="clip0_473_74168">
<rect width="47.3173" height="47.687" fill="white"/>
</clipPath>
</defs>
</svg>
